<?xml version="1.0" encoding="utf-8" standalone="no"?>
<!DOCTYPE svg PUBLIC "-//W3C//DTD SVG 1.1//EN" "http://www.w3.org/Graphics/SVG/1.1/DTD/svg11.dtd">
<svg width="3000px" height="3000px" version="1.1" xmlns="http://www.w3.org/2000/svg" xmlns:xlink="http://www.w3.org/1999/xlink">
<g id="bg">
<rect x="0" y="0" width="3000px" height="3000px" style="fill:rgb(255,255,255);"/>
</g>
<g id="ideograms">
<path d="M1500.000,275.000 A1225.000,1225.000 40.000 1,1 1188.908,2684.840 L1176.210,2733.201 A1275.000,1275.000 0.000 1,0 1500.000,225.000 Z" style="stroke-linecap:round;fill:rgb(228,26,28);" />
<text x="2963.4" y="1688.9" font-size="78.0px" font-family="CMUBright-Roman" style="text-anchor:middle;fill:rgb(0,0,0);" transform="rotate(-82.6,2963.4,1688.9)" >LN<tspan baseline-shift="-40%" font-size="90%">m</tspan>eta</text>
<path d="M1014.173,2624.543 A1225.000,1225.000 40.000 0,1 1315.681,288.946 L1308.158,239.515 A1275.000,1275.000 0.000 0,0 994.343,2670.443 Z" style="stroke-linecap:round;fill:rgb(55,126,184);" />
<text x="114.0" y="1321.1" font-size="78.0px" font-family="CMUBright-Roman" style="text-anchor:middle;fill:rgb(0,0,0);" transform="rotate(-82.6,114.0,1321.1)" >N0</text>
</g>
<g id="link1">
</g>
<g id="plot0">
<g id="plot0-axis">
</g>
<path d="M1500.000,397.500 A1102.500,1102.500 40.000 0,1 1516.651,397.626 L1517.709,327.634 A1172.500,1172.500 0.000 0,0 1500.000,327.500 Z" style="stroke-linecap:round;fill:rgb(253,174,107);" />
<path d="M1516.651,397.626 A1102.500,1102.500 40.000 0,1 1533.299,398.003 L1535.413,328.035 A1172.500,1172.500 0.000 0,0 1517.709,327.634 Z" style="stroke-linecap:round;fill:rgb(253,174,107);" />
<path d="M1533.299,398.003 A1102.500,1102.500 40.000 0,1 1549.939,398.632 L1553.109,328.703 A1172.500,1172.500 0.000 0,0 1535.413,328.035 Z" style="stroke-linecap:round;fill:rgb(253,174,107);" />
<path d="M1549.939,398.632 A1102.500,1102.500 40.000 0,1 1566.567,399.511 L1570.794,329.639 A1172.500,1172.500 0.000 0,0 1553.109,328.703 Z" style="stroke-linecap:round;fill:rgb(253,174,107);" />
<path d="M1566.567,399.511 A1102.500,1102.500 40.000 0,1 1583.181,400.642 L1588.462,330.842 A1172.500,1172.500 0.000 0,0 1570.794,329.639 Z" style="stroke-linecap:round;fill:rgb(253,174,107);" />
<path d="M1583.181,400.642 A1102.500,1102.500 40.000 0,1 1599.775,402.024 L1606.110,332.311 A1172.500,1172.500 0.000 0,0 1588.462,330.842 Z" style="stroke-linecap:round;fill:rgb(253,174,107);" />
<path d="M1599.775,402.024 A1102.500,1102.500 40.000 0,1 1616.347,403.656 L1623.734,334.047 A1172.500,1172.500 0.000 0,0 1606.110,332.311 Z" style="stroke-linecap:round;fill:rgb(253,174,107);" />
<path d="M1616.347,403.656 A1102.500,1102.500 40.000 0,1 1632.892,405.538 L1641.329,336.049 A1172.500,1172.500 0.000 0,0 1623.734,334.047 Z" style="stroke-linecap:round;fill:rgb(253,174,107);" />
<path d="M1632.892,405.538 A1102.500,1102.500 40.000 0,1 1649.406,407.670 L1658.893,338.316 A1172.500,1172.500 0.000 0,0 1641.329,336.049 Z" style="stroke-linecap:round;fill:rgb(253,174,107);" />
<path d="M1649.406,407.670 A1102.500,1102.500 40.000 0,1 1665.887,410.052 L1676.420,340.848 A1172.500,1172.500 0.000 0,0 1658.893,338.316 Z" style="stroke-linecap:round;fill:rgb(253,174,107);" />
<path d="M1665.887,410.052 A1102.500,1102.500 40.000 0,1 1682.330,412.681 L1693.906,343.645 A1172.500,1172.500 0.000 0,0 1676.420,340.848 Z" style="stroke-linecap:round;fill:rgb(253,174,107);" />
<path d="M1682.330,412.681 A1102.500,1102.500 40.000 0,1 1698.731,415.559 L1711.349,346.706 A1172.500,1172.500 0.000 0,0 1693.906,343.645 Z" style="stroke-linecap:round;fill:rgb(253,174,107);" />
<path d="M1698.731,415.559 A1102.500,1102.500 40.000 0,1 1715.087,418.684 L1728.743,350.029 A1172.500,1172.500 0.000 0,0 1711.349,346.706 Z" style="stroke-linecap:round;fill:rgb(253,174,107);" />
<path d="M1715.087,418.684 A1102.500,1102.500 40.000 0,1 1731.394,422.056 L1746.086,353.615 A1172.500,1172.500 0.000 0,0 1728.743,350.029 Z" style="stroke-linecap:round;fill:rgb(253,174,107);" />
<path d="M1731.394,422.056 A1102.500,1102.500 40.000 0,1 1747.648,425.674 L1763.372,357.463 A1172.500,1172.500 0.000 0,0 1746.086,353.615 Z" style="stroke-linecap:round;fill:rgb(253,174,107);" />
<path d="M1747.648,425.674 A1102.500,1102.500 40.000 0,1 1763.846,429.537 L1780.598,361.571 A1172.500,1172.500 0.000 0,0 1763.372,357.463 Z" style="stroke-linecap:round;fill:rgb(253,174,107);" />
<path d="M1763.846,429.537 A1102.500,1102.500 40.000 0,1 1779.983,433.644 L1797.760,365.939 A1172.500,1172.500 0.000 0,0 1780.598,361.571 Z" style="stroke-linecap:round;fill:rgb(253,174,107);" />
<path d="M1779.983,433.644 A1102.500,1102.500 40.000 0,1 1796.056,437.994 L1814.854,370.565 A1172.500,1172.500 0.000 0,0 1797.760,365.939 Z" style="stroke-linecap:round;fill:rgb(253,174,107);" />
<path d="M1796.056,437.994 A1102.500,1102.500 40.000 0,1 1812.062,442.586 L1831.876,375.449 A1172.500,1172.500 0.000 0,0 1814.854,370.565 Z" style="stroke-linecap:round;fill:rgb(253,174,107);" />
<path d="M1812.062,442.586 A1102.500,1102.500 40.000 0,1 1827.997,447.420 L1848.822,380.590 A1172.500,1172.500 0.000 0,0 1831.876,375.449 Z" style="stroke-linecap:round;fill:rgb(253,174,107);" />
<path d="M1827.997,447.420 A1102.500,1102.500 40.000 0,1 1843.857,452.494 L1865.689,385.986 A1172.500,1172.500 0.000 0,0 1848.822,380.590 Z" style="stroke-linecap:round;fill:rgb(253,174,107);" />
<path d="M1843.857,452.494 A1102.500,1102.500 40.000 0,1 1859.639,457.807 L1882.473,391.636 A1172.500,1172.500 0.000 0,0 1865.689,385.986 Z" style="stroke-linecap:round;fill:rgb(253,174,107);" />
<path d="M1859.639,457.807 A1102.500,1102.500 40.000 0,1 1875.338,463.358 L1899.169,397.539 A1172.500,1172.500 0.000 0,0 1882.473,391.636 Z" style="stroke-linecap:round;fill:rgb(253,174,107);" />
<path d="M1875.338,463.358 A1102.500,1102.500 40.000 0,1 1890.952,469.145 L1915.774,403.693 A1172.500,1172.500 0.000 0,0 1899.169,397.539 Z" style="stroke-linecap:round;fill:rgb(253,174,107);" />
<path d="M1890.952,469.145 A1102.500,1102.500 40.000 0,1 1906.477,475.167 L1932.285,410.098 A1172.500,1172.500 0.000 0,0 1915.774,403.693 Z" style="stroke-linecap:round;fill:rgb(253,174,107);" />
<path d="M1906.477,475.167 A1102.500,1102.500 40.000 0,1 1921.908,481.423 L1948.696,416.751 A1172.500,1172.500 0.000 0,0 1932.285,410.098 Z" style="stroke-linecap:round;fill:rgb(253,174,107);" />
<path d="M1921.908,481.423 A1102.500,1102.500 40.000 0,1 1937.244,487.911 L1965.006,423.652 A1172.500,1172.500 0.000 0,0 1948.696,416.751 Z" style="stroke-linecap:round;fill:rgb(253,174,107);" />
<path d="M1937.244,487.911 A1102.500,1102.500 40.000 0,1 1952.480,494.630 L1981.209,430.797 A1172.500,1172.500 0.000 0,0 1965.006,423.652 Z" style="stroke-linecap:round;fill:rgb(253,174,107);" />
<path d="M1952.480,494.630 A1102.500,1102.500 40.000 0,1 1967.613,501.579 L1997.303,438.187 A1172.500,1172.500 0.000 0,0 1981.209,430.797 Z" style="stroke-linecap:round;fill:rgb(253,174,107);" />
<path d="M1967.613,501.579 A1102.500,1102.500 40.000 0,1 1982.639,508.755 L2013.283,445.819 A1172.500,1172.500 0.000 0,0 1997.303,438.187 Z" style="stroke-linecap:round;fill:rgb(253,174,107);" />
<path d="M1982.639,508.755 A1102.500,1102.500 40.000 0,1 1997.555,516.158 L2029.146,453.692 A1172.500,1172.500 0.000 0,0 2013.283,445.819 Z" style="stroke-linecap:round;fill:rgb(253,174,107);" />
<path d="M1997.555,516.158 A1102.500,1102.500 40.000 0,1 2012.357,523.785 L2044.888,461.803 A1172.500,1172.500 0.000 0,0 2029.146,453.692 Z" style="stroke-linecap:round;fill:rgb(253,174,107);" />
<path d="M2012.357,523.785 A1102.500,1102.500 40.000 0,1 2027.043,531.634 L2060.506,470.151 A1172.500,1172.500 0.000 0,0 2044.888,461.803 Z" style="stroke-linecap:round;fill:rgb(253,174,107);" />
<path d="M2027.043,531.634 A1102.500,1102.500 40.000 0,1 2041.608,539.705 L2075.996,478.734 A1172.500,1172.500 0.000 0,0 2060.506,470.151 Z" style="stroke-linecap:round;fill:rgb(253,174,107);" />
<path d="M2041.608,539.705 A1102.500,1102.500 40.000 0,1 2056.050,547.994 L2091.355,487.550 A1172.500,1172.500 0.000 0,0 2075.996,478.734 Z" style="stroke-linecap:round;fill:rgb(253,174,107);" />
<path d="M2056.050,547.994 A1102.500,1102.500 40.000 0,1 2070.365,556.501 L2106.579,496.596 A1172.500,1172.500 0.000 0,0 2091.355,487.550 Z" style="stroke-linecap:round;fill:rgb(253,174,107);" />
<path d="M2070.365,556.501 A1102.500,1102.500 40.000 0,1 2084.550,565.223 L2121.664,505.872 A1172.500,1172.500 0.000 0,0 2106.579,496.596 Z" style="stroke-linecap:round;fill:rgb(253,174,107);" />
<path d="M2084.550,565.223 A1102.500,1102.500 40.000 0,1 2098.601,574.158 L2136.608,515.375 A1172.500,1172.500 0.000 0,0 2121.664,505.872 Z" style="stroke-linecap:round;fill:rgb(253,174,107);" />
<path d="M2098.601,574.158 A1102.500,1102.500 40.000 0,1 2112.516,583.305 L2151.406,525.102 A1172.500,1172.500 0.000 0,0 2136.608,515.375 Z" style="stroke-linecap:round;fill:rgb(253,174,107);" />
<path d="M2112.516,583.305 A1102.500,1102.500 40.000 0,1 2126.291,592.660 L2166.056,535.051 A1172.500,1172.500 0.000 0,0 2151.406,525.102 Z" style="stroke-linecap:round;fill:rgb(253,174,107);" />
<path d="M2126.291,592.660 A1102.500,1102.500 40.000 0,1 2139.924,602.223 L2180.554,545.221 A1172.500,1172.500 0.000 0,0 2166.056,535.051 Z" style="stroke-linecap:round;fill:rgb(253,174,107);" />
<path d="M2139.924,602.223 A1102.500,1102.500 40.000 0,1 2153.410,611.990 L2194.896,555.609 A1172.500,1172.500 0.000 0,0 2180.554,545.221 Z" style="stroke-linecap:round;fill:rgb(253,174,107);" />
<path d="M2153.410,611.990 A1102.500,1102.500 40.000 0,1 2166.747,621.960 L2209.081,566.211 A1172.500,1172.500 0.000 0,0 2194.896,555.609 Z" style="stroke-linecap:round;fill:rgb(253,174,107);" />
<path d="M2166.747,621.960 A1102.500,1102.500 40.000 0,1 2179.933,632.130 L2223.103,577.027 A1172.500,1172.500 0.000 0,0 2209.081,566.211 Z" style="stroke-linecap:round;fill:rgb(253,174,107);" />
<path d="M2179.933,632.130 A1102.500,1102.500 40.000 0,1 2192.963,642.498 L2236.960,588.054 A1172.500,1172.500 0.000 0,0 2223.103,577.027 Z" style="stroke-linecap:round;fill:rgb(253,174,107);" />
<path d="M2192.963,642.498 A1102.500,1102.500 40.000 0,1 2205.835,653.062 L2250.650,599.288 A1172.500,1172.500 0.000 0,0 2236.960,588.054 Z" style="stroke-linecap:round;fill:rgb(253,174,107);" />
<path d="M2205.835,653.062 A1102.500,1102.500 40.000 0,1 2218.546,663.819 L2264.168,610.728 A1172.500,1172.500 0.000 0,0 2250.650,599.288 Z" style="stroke-linecap:round;fill:rgb(253,174,107);" />
<path d="M2218.546,663.819 A1102.500,1102.500 40.000 0,1 2231.093,674.767 L2277.511,622.371 A1172.500,1172.500 0.000 0,0 2264.168,610.728 Z" style="stroke-linecap:round;fill:rgb(253,174,107);" />
<path d="M2231.093,674.767 A1102.500,1102.500 40.000 0,1 2243.473,685.903 L2290.678,634.214 A1172.500,1172.500 0.000 0,0 2277.511,622.371 Z" style="stroke-linecap:round;fill:rgb(253,174,107);" />
<path d="M2243.473,685.903 A1102.500,1102.500 40.000 0,1 2255.684,697.225 L2303.664,646.255 A1172.500,1172.500 0.000 0,0 2290.678,634.214 Z" style="stroke-linecap:round;fill:rgb(253,174,107);" />
<path d="M2255.684,697.225 A1102.500,1102.500 40.000 0,1 2267.722,708.729 L2316.466,658.490 A1172.500,1172.500 0.000 0,0 2303.664,646.255 Z" style="stroke-linecap:round;fill:rgb(253,174,107);" />
<path d="M2267.722,708.729 A1102.500,1102.500 40.000 0,1 2279.585,720.415 L2329.083,670.917 A1172.500,1172.500 0.000 0,0 2316.466,658.490 Z" style="stroke-linecap:round;fill:rgb(253,174,107);" />
<path d="M2279.585,720.415 A1102.500,1102.500 40.000 0,1 2291.271,732.278 L2341.510,683.534 A1172.500,1172.500 0.000 0,0 2329.083,670.917 Z" style="stroke-linecap:round;fill:rgb(253,174,107);" />
<path d="M2291.271,732.278 A1102.500,1102.500 40.000 0,1 2302.775,744.316 L2353.745,696.336 A1172.500,1172.500 0.000 0,0 2341.510,683.534 Z" style="stroke-linecap:round;fill:rgb(253,174,107);" />
<path d="M2302.775,744.316 A1102.500,1102.500 40.000 0,1 2314.097,756.527 L2365.786,709.322 A1172.500,1172.500 0.000 0,0 2353.745,696.336 Z" style="stroke-linecap:round;fill:rgb(253,174,107);" />
<path d="M2314.097,756.527 A1102.500,1102.500 40.000 0,1 2325.233,768.907 L2377.629,722.489 A1172.500,1172.500 0.000 0,0 2365.786,709.322 Z" style="stroke-linecap:round;fill:rgb(253,174,107);" />
<path d="M2325.233,768.907 A1102.500,1102.500 40.000 0,1 2336.181,781.454 L2389.272,735.832 A1172.500,1172.500 0.000 0,0 2377.629,722.489 Z" style="stroke-linecap:round;fill:rgb(253,174,107);" />
<path d="M2336.181,781.454 A1102.500,1102.500 40.000 0,1 2346.938,794.165 L2400.712,749.350 A1172.500,1172.500 0.000 0,0 2389.272,735.832 Z" style="stroke-linecap:round;fill:rgb(253,174,107);" />
<path d="M2346.938,794.165 A1102.500,1102.500 40.000 0,1 2357.502,807.037 L2411.946,763.040 A1172.500,1172.500 0.000 0,0 2400.712,749.350 Z" style="stroke-linecap:round;fill:rgb(253,174,107);" />
<path d="M2357.502,807.037 A1102.500,1102.500 40.000 0,1 2367.870,820.067 L2422.973,776.897 A1172.500,1172.500 0.000 0,0 2411.946,763.040 Z" style="stroke-linecap:round;fill:rgb(253,174,107);" />
<path d="M2367.870,820.067 A1102.500,1102.500 40.000 0,1 2378.040,833.253 L2433.789,790.919 A1172.500,1172.500 0.000 0,0 2422.973,776.897 Z" style="stroke-linecap:round;fill:rgb(253,174,107);" />
<path d="M2378.040,833.253 A1102.500,1102.500 40.000 0,1 2388.010,846.590 L2444.391,805.104 A1172.500,1172.500 0.000 0,0 2433.789,790.919 Z" style="stroke-linecap:round;fill:rgb(253,174,107);" />
<path d="M2388.010,846.590 A1102.500,1102.500 40.000 0,1 2397.777,860.076 L2454.779,819.446 A1172.500,1172.500 0.000 0,0 2444.391,805.104 Z" style="stroke-linecap:round;fill:rgb(253,174,107);" />
<path d="M2397.777,860.076 A1102.500,1102.500 40.000 0,1 2407.340,873.709 L2464.949,833.944 A1172.500,1172.500 0.000 0,0 2454.779,819.446 Z" style="stroke-linecap:round;fill:rgb(253,174,107);" />
<path d="M2407.340,873.709 A1102.500,1102.500 40.000 0,1 2416.695,887.484 L2474.898,848.594 A1172.500,1172.500 0.000 0,0 2464.949,833.944 Z" style="stroke-linecap:round;fill:rgb(253,174,107);" />
<path d="M2416.695,887.484 A1102.500,1102.500 40.000 0,1 2425.842,901.399 L2484.625,863.392 A1172.500,1172.500 0.000 0,0 2474.898,848.594 Z" style="stroke-linecap:round;fill:rgb(253,174,107);" />
<path d="M2425.842,901.399 A1102.500,1102.500 40.000 0,1 2434.777,915.450 L2494.128,878.336 A1172.500,1172.500 0.000 0,0 2484.625,863.392 Z" style="stroke-linecap:round;fill:rgb(253,174,107);" />
<path d="M2434.777,915.450 A1102.500,1102.500 40.000 0,1 2443.499,929.635 L2503.404,893.421 A1172.500,1172.500 0.000 0,0 2494.128,878.336 Z" style="stroke-linecap:round;fill:rgb(253,174,107);" />
<path d="M2443.499,929.635 A1102.500,1102.500 40.000 0,1 2452.006,943.950 L2512.450,908.645 A1172.500,1172.500 0.000 0,0 2503.404,893.421 Z" style="stroke-linecap:round;fill:rgb(253,174,107);" />
<path d="M2452.006,943.950 A1102.500,1102.500 40.000 0,1 2460.295,958.392 L2521.266,924.004 A1172.500,1172.500 0.000 0,0 2512.450,908.645 Z" style="stroke-linecap:round;fill:rgb(253,174,107);" />
<path d="M2460.295,958.392 A1102.500,1102.500 40.000 0,1 2468.366,972.957 L2529.849,939.494 A1172.500,1172.500 0.000 0,0 2521.266,924.004 Z" style="stroke-linecap:round;fill:rgb(253,174,107);" />
<path d="M2468.366,972.957 A1102.500,1102.500 40.000 0,1 2476.215,987.643 L2538.197,955.112 A1172.500,1172.500 0.000 0,0 2529.849,939.494 Z" style="stroke-linecap:round;fill:rgb(253,174,107);" />
<path d="M2476.215,987.643 A1102.500,1102.500 40.000 0,1 2483.842,1002.445 L2546.308,970.854 A1172.500,1172.500 0.000 0,0 2538.197,955.112 Z" style="stroke-linecap:round;fill:rgb(253,174,107);" />
<path d="M2483.842,1002.445 A1102.500,1102.500 40.000 0,1 2491.245,1017.361 L2554.181,986.717 A1172.500,1172.500 0.000 0,0 2546.308,970.854 Z" style="stroke-linecap:round;fill:rgb(253,174,107);" />
<path d="M2491.245,1017.361 A1102.500,1102.500 40.000 0,1 2498.421,1032.387 L2561.813,1002.697 A1172.500,1172.500 0.000 0,0 2554.181,986.717 Z" style="stroke-linecap:round;fill:rgb(253,174,107);" />
<path d="M2498.421,1032.387 A1102.500,1102.500 40.000 0,1 2505.370,1047.520 L2569.203,1018.791 A1172.500,1172.500 0.000 0,0 2561.813,1002.697 Z" style="stroke-linecap:round;fill:rgb(253,174,107);" />
<path d="M2505.370,1047.520 A1102.500,1102.500 40.000 0,1 2512.089,1062.756 L2576.348,1034.994 A1172.500,1172.500 0.000 0,0 2569.203,1018.791 Z" style="stroke-linecap:round;fill:rgb(253,174,107);" />
<path d="M2512.089,1062.756 A1102.500,1102.500 40.000 0,1 2518.577,1078.092 L2583.249,1051.304 A1172.500,1172.500 0.000 0,0 2576.348,1034.994 Z" style="stroke-linecap:round;fill:rgb(253,174,107);" />
<path d="M2518.577,1078.092 A1102.500,1102.500 40.000 0,1 2524.833,1093.523 L2589.902,1067.715 A1172.500,1172.500 0.000 0,0 2583.249,1051.304 Z" style="stroke-linecap:round;fill:rgb(253,174,107);" />
<path d="M2524.833,1093.523 A1102.500,1102.500 40.000 0,1 2530.855,1109.048 L2596.307,1084.226 A1172.500,1172.500 0.000 0,0 2589.902,1067.715 Z" style="stroke-linecap:round;fill:rgb(253,174,107);" />
<path d="M2530.855,1109.048 A1102.500,1102.500 40.000 0,1 2536.642,1124.662 L2602.461,1100.831 A1172.500,1172.500 0.000 0,0 2596.307,1084.226 Z" style="stroke-linecap:round;fill:rgb(253,174,107);" />
<path d="M2536.642,1124.662 A1102.500,1102.500 40.000 0,1 2542.193,1140.361 L2608.364,1117.527 A1172.500,1172.500 0.000 0,0 2602.461,1100.831 Z" style="stroke-linecap:round;fill:rgb(253,174,107);" />
<path d="M2542.193,1140.361 A1102.500,1102.500 40.000 0,1 2547.506,1156.143 L2614.014,1134.311 A1172.500,1172.500 0.000 0,0 2608.364,1117.527 Z" style="stroke-linecap:round;fill:rgb(253,174,107);" />
<path d="M2547.506,1156.143 A1102.500,1102.500 40.000 0,1 2552.580,1172.003 L2619.410,1151.178 A1172.500,1172.500 0.000 0,0 2614.014,1134.311 Z" style="stroke-linecap:round;fill:rgb(253,174,107);" />
<path d="M2552.580,1172.003 A1102.500,1102.500 40.000 0,1 2557.414,1187.938 L2624.551,1168.124 A1172.500,1172.500 0.000 0,0 2619.410,1151.178 Z" style="stroke-linecap:round;fill:rgb(253,174,107);" />
<path d="M2557.414,1187.938 A1102.500,1102.500 40.000 0,1 2562.006,1203.944 L2629.435,1185.146 A1172.500,1172.500 0.000 0,0 2624.551,1168.124 Z" style="stroke-linecap:round;fill:rgb(253,174,107);" />
<path d="M2562.006,1203.944 A1102.500,1102.500 40.000 0,1 2566.356,1220.017 L2634.061,1202.240 A1172.500,1172.500 0.000 0,0 2629.435,1185.146 Z" style="stroke-linecap:round;fill:rgb(253,174,107);" />
<path d="M2566.356,1220.017 A1102.500,1102.500 40.000 0,1 2570.463,1236.154 L2638.429,1219.402 A1172.500,1172.500 0.000 0,0 2634.061,1202.240 Z" style="stroke-linecap:round;fill:rgb(253,174,107);" />
<path d="M2570.463,1236.154 A1102.500,1102.500 40.000 0,1 2574.326,1252.352 L2642.537,1236.628 A1172.500,1172.500 0.000 0,0 2638.429,1219.402 Z" style="stroke-linecap:round;fill:rgb(253,174,107);" />
<path d="M2574.326,1252.352 A1102.500,1102.500 40.000 0,1 2577.944,1268.606 L2646.385,1253.914 A1172.500,1172.500 0.000 0,0 2642.537,1236.628 Z" style="stroke-linecap:round;fill:rgb(253,174,107);" />
<path d="M2577.944,1268.606 A1102.500,1102.500 40.000 0,1 2581.316,1284.913 L2649.971,1271.257 A1172.500,1172.500 0.000 0,0 2646.385,1253.914 Z" style="stroke-linecap:round;fill:rgb(253,174,107);" />
<path d="M2581.316,1284.913 A1102.500,1102.500 40.000 0,1 2584.441,1301.269 L2653.294,1288.651 A1172.500,1172.500 0.000 0,0 2649.971,1271.257 Z" style="stroke-linecap:round;fill:rgb(253,174,107);" />
<path d="M2584.441,1301.269 A1102.500,1102.500 40.000 0,1 2587.319,1317.670 L2656.355,1306.094 A1172.500,1172.500 0.000 0,0 2653.294,1288.651 Z" style="stroke-linecap:round;fill:rgb(253,174,107);" />
<path d="M2587.319,1317.670 A1102.500,1102.500 40.000 0,1 2589.948,1334.113 L2659.152,1323.580 A1172.500,1172.500 0.000 0,0 2656.355,1306.094 Z" style="stroke-linecap:round;fill:rgb(253,174,107);" />
<path d="M2589.948,1334.113 A1102.500,1102.500 40.000 0,1 2592.330,1350.594 L2661.684,1341.107 A1172.500,1172.500 0.000 0,0 2659.152,1323.580 Z" style="stroke-linecap:round;fill:rgb(253,174,107);" />
<path d="M2592.330,1350.594 A1102.500,1102.500 40.000 0,1 2594.462,1367.108 L2663.951,1358.671 A1172.500,1172.500 0.000 0,0 2661.684,1341.107 Z" style="stroke-linecap:round;fill:rgb(253,174,107);" />
<path d="M2594.462,1367.108 A1102.500,1102.500 40.000 0,1 2596.344,1383.653 L2665.953,1376.266 A1172.500,1172.500 0.000 0,0 2663.951,1358.671 Z" style="stroke-linecap:round;fill:rgb(253,174,107);" />
<path d="M2596.344,1383.653 A1102.500,1102.500 40.000 0,1 2597.976,1400.225 L2667.689,1393.890 A1172.500,1172.500 0.000 0,0 2665.953,1376.266 Z" style="stroke-linecap:round;fill:rgb(253,174,107);" />
<path d="M2597.976,1400.225 A1102.500,1102.500 40.000 0,1 2599.358,1416.819 L2669.158,1411.538 A1172.500,1172.500 0.000 0,0 2667.689,1393.890 Z" style="stroke-linecap:round;fill:rgb(253,174,107);" />
<path d="M2599.358,1416.819 A1102.500,1102.500 40.000 0,1 2600.489,1433.433 L2670.361,1429.206 A1172.500,1172.500 0.000 0,0 2669.158,1411.538 Z" style="stroke-linecap:round;fill:rgb(253,174,107);" />
<path d="M2600.489,1433.433 A1102.500,1102.500 40.000 0,1 2601.368,1450.061 L2671.297,1446.891 A1172.500,1172.500 0.000 0,0 2670.361,1429.206 Z" style="stroke-linecap:round;fill:rgb(253,174,107);" />
<path d="M2601.368,1450.061 A1102.500,1102.500 40.000 0,1 2601.997,1466.701 L2671.965,1464.587 A1172.500,1172.500 0.000 0,0 2671.297,1446.891 Z" style="stroke-linecap:round;fill:rgb(253,174,107);" />
<path d="M2601.997,1466.701 A1102.500,1102.500 40.000 0,1 2602.374,1483.349 L2672.366,1482.291 A1172.500,1172.500 0.000 0,0 2671.965,1464.587 Z" style="stroke-linecap:round;fill:rgb(253,174,107);" />
<path d="M2602.374,1483.349 A1102.500,1102.500 40.000 0,1 2602.500,1500.000 L2672.500,1500.000 A1172.500,1172.500 0.000 0,0 2672.366,1482.291 Z" style="stroke-linecap:round;fill:rgb(253,174,107);" />
<path d="M2602.500,1500.000 A1102.500,1102.500 40.000 0,1 2602.374,1516.651 L2672.366,1517.709 A1172.500,1172.500 0.000 0,0 2672.500,1500.000 Z" style="stroke-linecap:round;fill:rgb(253,174,107);" />
<path d="M2602.374,1516.651 A1102.500,1102.500 40.000 0,1 2601.997,1533.299 L2671.965,1535.413 A1172.500,1172.500 0.000 0,0 2672.366,1517.709 Z" style="stroke-linecap:round;fill:rgb(253,174,107);" />
<path d="M2601.997,1533.299 A1102.500,1102.500 40.000 0,1 2601.368,1549.939 L2671.297,1553.109 A1172.500,1172.500 0.000 0,0 2671.965,1535.413 Z" style="stroke-linecap:round;fill:rgb(253,174,107);" />
<path d="M2601.368,1549.939 A1102.500,1102.500 40.000 0,1 2600.489,1566.567 L2670.361,1570.794 A1172.500,1172.500 0.000 0,0 2671.297,1553.109 Z" style="stroke-linecap:round;fill:rgb(253,174,107);" />
<path d="M2600.489,1566.567 A1102.500,1102.500 40.000 0,1 2599.358,1583.181 L2669.158,1588.462 A1172.500,1172.500 0.000 0,0 2670.361,1570.794 Z" style="stroke-linecap:round;fill:rgb(253,174,107);" />
<path d="M2599.358,1583.181 A1102.500,1102.500 40.000 0,1 2597.976,1599.775 L2667.689,1606.110 A1172.500,1172.500 0.000 0,0 2669.158,1588.462 Z" style="stroke-linecap:round;fill:rgb(253,174,107);" />
<path d="M2597.976,1599.775 A1102.500,1102.500 40.000 0,1 2596.344,1616.347 L2665.953,1623.734 A1172.500,1172.500 0.000 0,0 2667.689,1606.110 Z" style="stroke-linecap:round;fill:rgb(253,174,107);" />
<path d="M2596.344,1616.347 A1102.500,1102.500 40.000 0,1 2594.462,1632.892 L2663.951,1641.329 A1172.500,1172.500 0.000 0,0 2665.953,1623.734 Z" style="stroke-linecap:round;fill:rgb(253,174,107);" />
<path d="M2594.462,1632.892 A1102.500,1102.500 40.000 0,1 2592.330,1649.406 L2661.684,1658.893 A1172.500,1172.500 0.000 0,0 2663.951,1641.329 Z" style="stroke-linecap:round;fill:rgb(253,174,107);" />
<path d="M2592.330,1649.406 A1102.500,1102.500 40.000 0,1 2589.948,1665.887 L2659.152,1676.420 A1172.500,1172.500 0.000 0,0 2661.684,1658.893 Z" style="stroke-linecap:round;fill:rgb(253,174,107);" />
<path d="M2589.948,1665.887 A1102.500,1102.500 40.000 0,1 2587.319,1682.330 L2656.355,1693.906 A1172.500,1172.500 0.000 0,0 2659.152,1676.420 Z" style="stroke-linecap:round;fill:rgb(253,174,107);" />
<path d="M2587.319,1682.330 A1102.500,1102.500 40.000 0,1 2584.441,1698.731 L2653.294,1711.349 A1172.500,1172.500 0.000 0,0 2656.355,1693.906 Z" style="stroke-linecap:round;fill:rgb(253,174,107);" />
<path d="M2584.441,1698.731 A1102.500,1102.500 40.000 0,1 2581.316,1715.087 L2649.971,1728.743 A1172.500,1172.500 0.000 0,0 2653.294,1711.349 Z" style="stroke-linecap:round;fill:rgb(253,174,107);" />
<path d="M2581.316,1715.087 A1102.500,1102.500 40.000 0,1 2577.944,1731.394 L2646.385,1746.086 A1172.500,1172.500 0.000 0,0 2649.971,1728.743 Z" style="stroke-linecap:round;fill:rgb(253,174,107);" />
<path d="M2577.944,1731.394 A1102.500,1102.500 40.000 0,1 2574.326,1747.648 L2642.537,1763.372 A1172.500,1172.500 0.000 0,0 2646.385,1746.086 Z" style="stroke-linecap:round;fill:rgb(253,174,107);" />
<path d="M2574.326,1747.648 A1102.500,1102.500 40.000 0,1 2570.463,1763.846 L2638.429,1780.598 A1172.500,1172.500 0.000 0,0 2642.537,1763.372 Z" style="stroke-linecap:round;fill:rgb(253,174,107);" />
<path d="M2570.463,1763.846 A1102.500,1102.500 40.000 0,1 2566.356,1779.983 L2634.061,1797.760 A1172.500,1172.500 0.000 0,0 2638.429,1780.598 Z" style="stroke-linecap:round;fill:rgb(253,174,107);" />
<path d="M2566.356,1779.983 A1102.500,1102.500 40.000 0,1 2562.006,1796.056 L2629.435,1814.854 A1172.500,1172.500 0.000 0,0 2634.061,1797.760 Z" style="stroke-linecap:round;fill:rgb(253,174,107);" />
<path d="M2562.006,1796.056 A1102.500,1102.500 40.000 0,1 2557.414,1812.062 L2624.551,1831.876 A1172.500,1172.500 0.000 0,0 2629.435,1814.854 Z" style="stroke-linecap:round;fill:rgb(253,174,107);" />
<path d="M2557.414,1812.062 A1102.500,1102.500 40.000 0,1 2552.580,1827.997 L2619.410,1848.822 A1172.500,1172.500 0.000 0,0 2624.551,1831.876 Z" style="stroke-linecap:round;fill:rgb(253,174,107);" />
<path d="M2552.580,1827.997 A1102.500,1102.500 40.000 0,1 2547.506,1843.857 L2614.014,1865.689 A1172.500,1172.500 0.000 0,0 2619.410,1848.822 Z" style="stroke-linecap:round;fill:rgb(253,174,107);" />
<path d="M2547.506,1843.857 A1102.500,1102.500 40.000 0,1 2542.193,1859.639 L2608.364,1882.473 A1172.500,1172.500 0.000 0,0 2614.014,1865.689 Z" style="stroke-linecap:round;fill:rgb(253,174,107);" />
<path d="M2542.193,1859.639 A1102.500,1102.500 40.000 0,1 2536.642,1875.338 L2602.461,1899.169 A1172.500,1172.500 0.000 0,0 2608.364,1882.473 Z" style="stroke-linecap:round;fill:rgb(253,174,107);" />
<path d="M2536.642,1875.338 A1102.500,1102.500 40.000 0,1 2530.855,1890.952 L2596.307,1915.774 A1172.500,1172.500 0.000 0,0 2602.461,1899.169 Z" style="stroke-linecap:round;fill:rgb(253,174,107);" />
<path d="M2530.855,1890.952 A1102.500,1102.500 40.000 0,1 2524.833,1906.477 L2589.902,1932.285 A1172.500,1172.500 0.000 0,0 2596.307,1915.774 Z" style="stroke-linecap:round;fill:rgb(253,174,107);" />
<path d="M2524.833,1906.477 A1102.500,1102.500 40.000 0,1 2518.577,1921.908 L2583.249,1948.696 A1172.500,1172.500 0.000 0,0 2589.902,1932.285 Z" style="stroke-linecap:round;fill:rgb(253,174,107);" />
<path d="M2518.577,1921.908 A1102.500,1102.500 40.000 0,1 2512.089,1937.244 L2576.348,1965.006 A1172.500,1172.500 0.000 0,0 2583.249,1948.696 Z" style="stroke-linecap:round;fill:rgb(253,174,107);" />
<path d="M2512.089,1937.244 A1102.500,1102.500 40.000 0,1 2505.370,1952.480 L2569.203,1981.209 A1172.500,1172.500 0.000 0,0 2576.348,1965.006 Z" style="stroke-linecap:round;fill:rgb(253,174,107);" />
<path d="M2505.370,1952.480 A1102.500,1102.500 40.000 0,1 2498.421,1967.613 L2561.813,1997.303 A1172.500,1172.500 0.000 0,0 2569.203,1981.209 Z" style="stroke-linecap:round;fill:rgb(253,174,107);" />
<path d="M2498.421,1967.613 A1102.500,1102.500 40.000 0,1 2491.245,1982.639 L2554.181,2013.283 A1172.500,1172.500 0.000 0,0 2561.813,1997.303 Z" style="stroke-linecap:round;fill:rgb(253,174,107);" />
<path d="M2491.245,1982.639 A1102.500,1102.500 40.000 0,1 2483.842,1997.555 L2546.308,2029.146 A1172.500,1172.500 0.000 0,0 2554.181,2013.283 Z" style="stroke-linecap:round;fill:rgb(253,174,107);" />
<path d="M2483.842,1997.555 A1102.500,1102.500 40.000 0,1 2476.215,2012.357 L2538.197,2044.888 A1172.500,1172.500 0.000 0,0 2546.308,2029.146 Z" style="stroke-linecap:round;fill:rgb(253,174,107);" />
<path d="M2476.215,2012.357 A1102.500,1102.500 40.000 0,1 2468.366,2027.043 L2529.849,2060.506 A1172.500,1172.500 0.000 0,0 2538.197,2044.888 Z" style="stroke-linecap:round;fill:rgb(253,174,107);" />
<path d="M2468.366,2027.043 A1102.500,1102.500 40.000 0,1 2460.295,2041.608 L2521.266,2075.996 A1172.500,1172.500 0.000 0,0 2529.849,2060.506 Z" style="stroke-linecap:round;fill:rgb(253,174,107);" />
<path d="M2460.295,2041.608 A1102.500,1102.500 40.000 0,1 2452.006,2056.050 L2512.450,2091.355 A1172.500,1172.500 0.000 0,0 2521.266,2075.996 Z" style="stroke-linecap:round;fill:rgb(253,174,107);" />
<path d="M2452.006,2056.050 A1102.500,1102.500 40.000 0,1 2443.499,2070.365 L2503.404,2106.579 A1172.500,1172.500 0.000 0,0 2512.450,2091.355 Z" style="stroke-linecap:round;fill:rgb(253,174,107);" />
<path d="M2443.499,2070.365 A1102.500,1102.500 40.000 0,1 2434.777,2084.550 L2494.128,2121.664 A1172.500,1172.500 0.000 0,0 2503.404,2106.579 Z" style="stroke-linecap:round;fill:rgb(253,174,107);" />
<path d="M2434.777,2084.550 A1102.500,1102.500 40.000 0,1 2425.842,2098.601 L2484.625,2136.608 A1172.500,1172.500 0.000 0,0 2494.128,2121.664 Z" style="stroke-linecap:round;fill:rgb(253,174,107);" />
<path d="M2425.842,2098.601 A1102.500,1102.500 40.000 0,1 2416.695,2112.516 L2474.898,2151.406 A1172.500,1172.500 0.000 0,0 2484.625,2136.608 Z" style="stroke-linecap:round;fill:rgb(253,174,107);" />
<path d="M2416.695,2112.516 A1102.500,1102.500 40.000 0,1 2407.340,2126.291 L2464.949,2166.056 A1172.500,1172.500 0.000 0,0 2474.898,2151.406 Z" style="stroke-linecap:round;fill:rgb(253,174,107);" />
<path d="M2407.340,2126.291 A1102.500,1102.500 40.000 0,1 2397.777,2139.924 L2454.779,2180.554 A1172.500,1172.500 0.000 0,0 2464.949,2166.056 Z" style="stroke-linecap:round;fill:rgb(253,174,107);" />
<path d="M2397.777,2139.924 A1102.500,1102.500 40.000 0,1 2388.010,2153.410 L2444.391,2194.896 A1172.500,1172.500 0.000 0,0 2454.779,2180.554 Z" style="stroke-linecap:round;fill:rgb(253,174,107);" />
<path d="M2388.010,2153.410 A1102.500,1102.500 40.000 0,1 2378.040,2166.747 L2433.789,2209.081 A1172.500,1172.500 0.000 0,0 2444.391,2194.896 Z" style="stroke-linecap:round;fill:rgb(253,174,107);" />
<path d="M2378.040,2166.747 A1102.500,1102.500 40.000 0,1 2367.870,2179.933 L2422.973,2223.103 A1172.500,1172.500 0.000 0,0 2433.789,2209.081 Z" style="stroke-linecap:round;fill:rgb(253,174,107);" />
<path d="M2367.870,2179.933 A1102.500,1102.500 40.000 0,1 2357.502,2192.963 L2411.946,2236.960 A1172.500,1172.500 0.000 0,0 2422.973,2223.103 Z" style="stroke-linecap:round;fill:rgb(253,174,107);" />
<path d="M2357.502,2192.963 A1102.500,1102.500 40.000 0,1 2346.938,2205.835 L2400.712,2250.650 A1172.500,1172.500 0.000 0,0 2411.946,2236.960 Z" style="stroke-linecap:round;fill:rgb(253,174,107);" />
<path d="M2346.938,2205.835 A1102.500,1102.500 40.000 0,1 2336.181,2218.546 L2389.272,2264.168 A1172.500,1172.500 0.000 0,0 2400.712,2250.650 Z" style="stroke-linecap:round;fill:rgb(253,174,107);" />
<path d="M2336.181,2218.546 A1102.500,1102.500 40.000 0,1 2325.233,2231.093 L2377.629,2277.511 A1172.500,1172.500 0.000 0,0 2389.272,2264.168 Z" style="stroke-linecap:round;fill:rgb(253,174,107);" />
<path d="M2325.233,2231.093 A1102.500,1102.500 40.000 0,1 2314.097,2243.473 L2365.786,2290.678 A1172.500,1172.500 0.000 0,0 2377.629,2277.511 Z" style="stroke-linecap:round;fill:rgb(253,174,107);" />
<path d="M2314.097,2243.473 A1102.500,1102.500 40.000 0,1 2302.775,2255.684 L2353.745,2303.664 A1172.500,1172.500 0.000 0,0 2365.786,2290.678 Z" style="stroke-linecap:round;fill:rgb(253,174,107);" />
<path d="M2302.775,2255.684 A1102.500,1102.500 40.000 0,1 2291.271,2267.722 L2341.510,2316.466 A1172.500,1172.500 0.000 0,0 2353.745,2303.664 Z" style="stroke-linecap:round;fill:rgb(253,174,107);" />
<path d="M2291.271,2267.722 A1102.500,1102.500 40.000 0,1 2279.585,2279.585 L2329.083,2329.083 A1172.500,1172.500 0.000 0,0 2341.510,2316.466 Z" style="stroke-linecap:round;fill:rgb(253,174,107);" />
<path d="M2279.585,2279.585 A1102.500,1102.500 40.000 0,1 2267.722,2291.271 L2316.466,2341.510 A1172.500,1172.500 0.000 0,0 2329.083,2329.083 Z" style="stroke-linecap:round;fill:rgb(253,174,107);" />
<path d="M2267.722,2291.271 A1102.500,1102.500 40.000 0,1 2255.684,2302.775 L2303.664,2353.745 A1172.500,1172.500 0.000 0,0 2316.466,2341.510 Z" style="stroke-linecap:round;fill:rgb(253,174,107);" />
<path d="M2255.684,2302.775 A1102.500,1102.500 40.000 0,1 2243.473,2314.097 L2290.678,2365.786 A1172.500,1172.500 0.000 0,0 2303.664,2353.745 Z" style="stroke-linecap:round;fill:rgb(253,174,107);" />
<path d="M2243.473,2314.097 A1102.500,1102.500 40.000 0,1 2231.093,2325.233 L2277.511,2377.629 A1172.500,1172.500 0.000 0,0 2290.678,2365.786 Z" style="stroke-linecap:round;fill:rgb(253,174,107);" />
<path d="M2231.093,2325.233 A1102.500,1102.500 40.000 0,1 2218.546,2336.181 L2264.168,2389.272 A1172.500,1172.500 0.000 0,0 2277.511,2377.629 Z" style="stroke-linecap:round;fill:rgb(253,174,107);" />
<path d="M2218.546,2336.181 A1102.500,1102.500 40.000 0,1 2205.835,2346.938 L2250.650,2400.712 A1172.500,1172.500 0.000 0,0 2264.168,2389.272 Z" style="stroke-linecap:round;fill:rgb(253,174,107);" />
<path d="M2205.835,2346.938 A1102.500,1102.500 40.000 0,1 2192.963,2357.502 L2236.960,2411.946 A1172.500,1172.500 0.000 0,0 2250.650,2400.712 Z" style="stroke-linecap:round;fill:rgb(253,174,107);" />
<path d="M2192.963,2357.502 A1102.500,1102.500 40.000 0,1 2179.933,2367.870 L2223.103,2422.973 A1172.500,1172.500 0.000 0,0 2236.960,2411.946 Z" style="stroke-linecap:round;fill:rgb(253,174,107);" />
<path d="M2179.933,2367.870 A1102.500,1102.500 40.000 0,1 2166.747,2378.040 L2209.081,2433.789 A1172.500,1172.500 0.000 0,0 2223.103,2422.973 Z" style="stroke-linecap:round;fill:rgb(253,174,107);" />
<path d="M2166.747,2378.040 A1102.500,1102.500 40.000 0,1 2153.410,2388.010 L2194.896,2444.391 A1172.500,1172.500 0.000 0,0 2209.081,2433.789 Z" style="stroke-linecap:round;fill:rgb(253,174,107);" />
<path d="M2153.410,2388.010 A1102.500,1102.500 40.000 0,1 2139.924,2397.777 L2180.554,2454.779 A1172.500,1172.500 0.000 0,0 2194.896,2444.391 Z" style="stroke-linecap:round;fill:rgb(253,174,107);" />
<path d="M2139.924,2397.777 A1102.500,1102.500 40.000 0,1 2126.291,2407.340 L2166.056,2464.949 A1172.500,1172.500 0.000 0,0 2180.554,2454.779 Z" style="stroke-linecap:round;fill:rgb(253,174,107);" />
<path d="M2126.291,2407.340 A1102.500,1102.500 40.000 0,1 2112.516,2416.695 L2151.406,2474.898 A1172.500,1172.500 0.000 0,0 2166.056,2464.949 Z" style="stroke-linecap:round;fill:rgb(253,174,107);" />
<path d="M2112.516,2416.695 A1102.500,1102.500 40.000 0,1 2098.601,2425.842 L2136.608,2484.625 A1172.500,1172.500 0.000 0,0 2151.406,2474.898 Z" style="stroke-linecap:round;fill:rgb(253,174,107);" />
<path d="M2098.601,2425.842 A1102.500,1102.500 40.000 0,1 2084.550,2434.777 L2121.664,2494.128 A1172.500,1172.500 0.000 0,0 2136.608,2484.625 Z" style="stroke-linecap:round;fill:rgb(253,174,107);" />
<path d="M2084.550,2434.777 A1102.500,1102.500 40.000 0,1 2070.365,2443.499 L2106.579,2503.404 A1172.500,1172.500 0.000 0,0 2121.664,2494.128 Z" style="stroke-linecap:round;fill:rgb(253,174,107);" />
<path d="M2070.365,2443.499 A1102.500,1102.500 40.000 0,1 2056.050,2452.006 L2091.355,2512.450 A1172.500,1172.500 0.000 0,0 2106.579,2503.404 Z" style="stroke-linecap:round;fill:rgb(253,174,107);" />
<path d="M2056.050,2452.006 A1102.500,1102.500 40.000 0,1 2041.608,2460.295 L2075.996,2521.266 A1172.500,1172.500 0.000 0,0 2091.355,2512.450 Z" style="stroke-linecap:round;fill:rgb(253,174,107);" />
<path d="M2041.608,2460.295 A1102.500,1102.500 40.000 0,1 2027.043,2468.366 L2060.506,2529.849 A1172.500,1172.500 0.000 0,0 2075.996,2521.266 Z" style="stroke-linecap:round;fill:rgb(253,174,107);" />
<path d="M2027.043,2468.366 A1102.500,1102.500 40.000 0,1 2012.357,2476.215 L2044.888,2538.197 A1172.500,1172.500 0.000 0,0 2060.506,2529.849 Z" style="stroke-linecap:round;fill:rgb(253,174,107);" />
<path d="M2012.357,2476.215 A1102.500,1102.500 40.000 0,1 1997.555,2483.842 L2029.146,2546.308 A1172.500,1172.500 0.000 0,0 2044.888,2538.197 Z" style="stroke-linecap:round;fill:rgb(253,174,107);" />
<path d="M1997.555,2483.842 A1102.500,1102.500 40.000 0,1 1982.639,2491.245 L2013.283,2554.181 A1172.500,1172.500 0.000 0,0 2029.146,2546.308 Z" style="stroke-linecap:round;fill:rgb(253,174,107);" />
<path d="M1982.639,2491.245 A1102.500,1102.500 40.000 0,1 1967.613,2498.421 L1997.303,2561.813 A1172.500,1172.500 0.000 0,0 2013.283,2554.181 Z" style="stroke-linecap:round;fill:rgb(253,174,107);" />
<path d="M1967.613,2498.421 A1102.500,1102.500 40.000 0,1 1952.480,2505.370 L1981.209,2569.203 A1172.500,1172.500 0.000 0,0 1997.303,2561.813 Z" style="stroke-linecap:round;fill:rgb(253,174,107);" />
<path d="M1952.480,2505.370 A1102.500,1102.500 40.000 0,1 1937.244,2512.089 L1965.006,2576.348 A1172.500,1172.500 0.000 0,0 1981.209,2569.203 Z" style="stroke-linecap:round;fill:rgb(253,174,107);" />
<path d="M1937.244,2512.089 A1102.500,1102.500 40.000 0,1 1921.908,2518.577 L1948.696,2583.249 A1172.500,1172.500 0.000 0,0 1965.006,2576.348 Z" style="stroke-linecap:round;fill:rgb(253,174,107);" />
<path d="M1921.908,2518.577 A1102.500,1102.500 40.000 0,1 1906.477,2524.833 L1932.285,2589.902 A1172.500,1172.500 0.000 0,0 1948.696,2583.249 Z" style="stroke-linecap:round;fill:rgb(253,174,107);" />
<path d="M1906.477,2524.833 A1102.500,1102.500 40.000 0,1 1890.952,2530.855 L1915.774,2596.307 A1172.500,1172.500 0.000 0,0 1932.285,2589.902 Z" style="stroke-linecap:round;fill:rgb(253,174,107);" />
<path d="M1890.952,2530.855 A1102.500,1102.500 40.000 0,1 1875.338,2536.642 L1899.169,2602.461 A1172.500,1172.500 0.000 0,0 1915.774,2596.307 Z" style="stroke-linecap:round;fill:rgb(253,174,107);" />
<path d="M1875.338,2536.642 A1102.500,1102.500 40.000 0,1 1859.639,2542.193 L1882.473,2608.364 A1172.500,1172.500 0.000 0,0 1899.169,2602.461 Z" style="stroke-linecap:round;fill:rgb(253,174,107);" />
<path d="M1859.639,2542.193 A1102.500,1102.500 40.000 0,1 1843.857,2547.506 L1865.689,2614.014 A1172.500,1172.500 0.000 0,0 1882.473,2608.364 Z" style="stroke-linecap:round;fill:rgb(253,174,107);" />
<path d="M1843.857,2547.506 A1102.500,1102.500 40.000 0,1 1827.997,2552.580 L1848.822,2619.410 A1172.500,1172.500 0.000 0,0 1865.689,2614.014 Z" style="stroke-linecap:round;fill:rgb(253,174,107);" />
<path d="M1827.997,2552.580 A1102.500,1102.500 40.000 0,1 1812.062,2557.414 L1831.876,2624.551 A1172.500,1172.500 0.000 0,0 1848.822,2619.410 Z" style="stroke-linecap:round;fill:rgb(253,174,107);" />
<path d="M1812.062,2557.414 A1102.500,1102.500 40.000 0,1 1796.056,2562.006 L1814.854,2629.435 A1172.500,1172.500 0.000 0,0 1831.876,2624.551 Z" style="stroke-linecap:round;fill:rgb(253,174,107);" />
<path d="M1796.056,2562.006 A1102.500,1102.500 40.000 0,1 1779.983,2566.356 L1797.760,2634.061 A1172.500,1172.500 0.000 0,0 1814.854,2629.435 Z" style="stroke-linecap:round;fill:rgb(253,174,107);" />
<path d="M1779.983,2566.356 A1102.500,1102.500 40.000 0,1 1763.846,2570.463 L1780.598,2638.429 A1172.500,1172.500 0.000 0,0 1797.760,2634.061 Z" style="stroke-linecap:round;fill:rgb(253,174,107);" />
<path d="M1763.846,2570.463 A1102.500,1102.500 40.000 0,1 1747.648,2574.326 L1763.372,2642.537 A1172.500,1172.500 0.000 0,0 1780.598,2638.429 Z" style="stroke-linecap:round;fill:rgb(253,174,107);" />
<path d="M1747.648,2574.326 A1102.500,1102.500 40.000 0,1 1731.394,2577.944 L1746.086,2646.385 A1172.500,1172.500 0.000 0,0 1763.372,2642.537 Z" style="stroke-linecap:round;fill:rgb(253,174,107);" />
<path d="M1731.394,2577.944 A1102.500,1102.500 40.000 0,1 1715.087,2581.316 L1728.743,2649.971 A1172.500,1172.500 0.000 0,0 1746.086,2646.385 Z" style="stroke-linecap:round;fill:rgb(253,174,107);" />
<path d="M1715.087,2581.316 A1102.500,1102.500 40.000 0,1 1698.731,2584.441 L1711.349,2653.294 A1172.500,1172.500 0.000 0,0 1728.743,2649.971 Z" style="stroke-linecap:round;fill:rgb(253,174,107);" />
<path d="M1698.731,2584.441 A1102.500,1102.500 40.000 0,1 1682.330,2587.319 L1693.906,2656.355 A1172.500,1172.500 0.000 0,0 1711.349,2653.294 Z" style="stroke-linecap:round;fill:rgb(253,174,107);" />
<path d="M1682.330,2587.319 A1102.500,1102.500 40.000 0,1 1665.887,2589.948 L1676.420,2659.152 A1172.500,1172.500 0.000 0,0 1693.906,2656.355 Z" style="stroke-linecap:round;fill:rgb(253,174,107);" />
<path d="M1665.887,2589.948 A1102.500,1102.500 40.000 0,1 1649.406,2592.330 L1658.893,2661.684 A1172.500,1172.500 0.000 0,0 1676.420,2659.152 Z" style="stroke-linecap:round;fill:rgb(253,174,107);" />
<path d="M1649.406,2592.330 A1102.500,1102.500 40.000 0,1 1632.892,2594.462 L1641.329,2663.951 A1172.500,1172.500 0.000 0,0 1658.893,2661.684 Z" style="stroke-linecap:round;fill:rgb(253,174,107);" />
<path d="M1632.892,2594.462 A1102.500,1102.500 40.000 0,1 1616.347,2596.344 L1623.734,2665.953 A1172.500,1172.500 0.000 0,0 1641.329,2663.951 Z" style="stroke-linecap:round;fill:rgb(253,174,107);" />
<path d="M1616.347,2596.344 A1102.500,1102.500 40.000 0,1 1599.775,2597.976 L1606.110,2667.689 A1172.500,1172.500 0.000 0,0 1623.734,2665.953 Z" style="stroke-linecap:round;fill:rgb(253,174,107);" />
<path d="M1599.775,2597.976 A1102.500,1102.500 40.000 0,1 1583.181,2599.358 L1588.462,2669.158 A1172.500,1172.500 0.000 0,0 1606.110,2667.689 Z" style="stroke-linecap:round;fill:rgb(253,174,107);" />
<path d="M1583.181,2599.358 A1102.500,1102.500 40.000 0,1 1566.567,2600.489 L1570.794,2670.361 A1172.500,1172.500 0.000 0,0 1588.462,2669.158 Z" style="stroke-linecap:round;fill:rgb(253,174,107);" />
<path d="M1566.567,2600.489 A1102.500,1102.500 40.000 0,1 1549.939,2601.368 L1553.109,2671.297 A1172.500,1172.500 0.000 0,0 1570.794,2670.361 Z" style="stroke-linecap:round;fill:rgb(253,174,107);" />
<path d="M1549.939,2601.368 A1102.500,1102.500 40.000 0,1 1533.299,2601.997 L1535.413,2671.965 A1172.500,1172.500 0.000 0,0 1553.109,2671.297 Z" style="stroke-linecap:round;fill:rgb(253,174,107);" />
<path d="M1533.299,2601.997 A1102.500,1102.500 40.000 0,1 1516.651,2602.374 L1517.709,2672.366 A1172.500,1172.500 0.000 0,0 1535.413,2671.965 Z" style="stroke-linecap:round;fill:rgb(253,174,107);" />
<path d="M1516.651,2602.374 A1102.500,1102.500 40.000 0,1 1500.000,2602.500 L1500.000,2672.500 A1172.500,1172.500 0.000 0,0 1517.709,2672.366 Z" style="stroke-linecap:round;fill:rgb(253,174,107);" />
<path d="M1500.000,2602.500 A1102.500,1102.500 40.000 0,1 1483.349,2602.374 L1482.291,2672.366 A1172.500,1172.500 0.000 0,0 1500.000,2672.500 Z" style="stroke-linecap:round;fill:rgb(253,174,107);" />
<path d="M1483.349,2602.374 A1102.500,1102.500 40.000 0,1 1466.701,2601.997 L1464.587,2671.965 A1172.500,1172.500 0.000 0,0 1482.291,2672.366 Z" style="stroke-linecap:round;fill:rgb(253,174,107);" />
<path d="M1466.701,2601.997 A1102.500,1102.500 40.000 0,1 1450.061,2601.368 L1446.891,2671.297 A1172.500,1172.500 0.000 0,0 1464.587,2671.965 Z" style="stroke-linecap:round;fill:rgb(253,174,107);" />
<path d="M1450.061,2601.368 A1102.500,1102.500 40.000 0,1 1433.433,2600.489 L1429.206,2670.361 A1172.500,1172.500 0.000 0,0 1446.891,2671.297 Z" style="stroke-linecap:round;fill:rgb(253,174,107);" />
<path d="M1433.433,2600.489 A1102.500,1102.500 40.000 0,1 1416.819,2599.358 L1411.538,2669.158 A1172.500,1172.500 0.000 0,0 1429.206,2670.361 Z" style="stroke-linecap:round;fill:rgb(253,174,107);" />
<path d="M1416.819,2599.358 A1102.500,1102.500 40.000 0,1 1400.225,2597.976 L1393.890,2667.689 A1172.500,1172.500 0.000 0,0 1411.538,2669.158 Z" style="stroke-linecap:round;fill:rgb(253,174,107);" />
<path d="M1400.225,2597.976 A1102.500,1102.500 40.000 0,1 1383.653,2596.344 L1376.266,2665.953 A1172.500,1172.500 0.000 0,0 1393.890,2667.689 Z" style="stroke-linecap:round;fill:rgb(253,174,107);" />
<path d="M1383.653,2596.344 A1102.500,1102.500 40.000 0,1 1367.108,2594.462 L1358.671,2663.951 A1172.500,1172.500 0.000 0,0 1376.266,2665.953 Z" style="stroke-linecap:round;fill:rgb(253,174,107);" />
<path d="M1367.108,2594.462 A1102.500,1102.500 40.000 0,1 1350.594,2592.330 L1341.107,2661.684 A1172.500,1172.500 0.000 0,0 1358.671,2663.951 Z" style="stroke-linecap:round;fill:rgb(253,174,107);" />
<path d="M1350.594,2592.330 A1102.500,1102.500 40.000 0,1 1334.113,2589.948 L1323.580,2659.152 A1172.500,1172.500 0.000 0,0 1341.107,2661.684 Z" style="stroke-linecap:round;fill:rgb(253,174,107);" />
<path d="M1334.113,2589.948 A1102.500,1102.500 40.000 0,1 1317.670,2587.319 L1306.094,2656.355 A1172.500,1172.500 0.000 0,0 1323.580,2659.152 Z" style="stroke-linecap:round;fill:rgb(253,174,107);" />
<path d="M1317.670,2587.319 A1102.500,1102.500 40.000 0,1 1301.269,2584.441 L1288.651,2653.294 A1172.500,1172.500 0.000 0,0 1306.094,2656.355 Z" style="stroke-linecap:round;fill:rgb(253,174,107);" />
<path d="M1301.269,2584.441 A1102.500,1102.500 40.000 0,1 1284.913,2581.316 L1271.257,2649.971 A1172.500,1172.500 0.000 0,0 1288.651,2653.294 Z" style="stroke-linecap:round;fill:rgb(253,174,107);" />
<path d="M1284.913,2581.316 A1102.500,1102.500 40.000 0,1 1268.606,2577.944 L1253.914,2646.385 A1172.500,1172.500 0.000 0,0 1271.257,2649.971 Z" style="stroke-linecap:round;fill:rgb(253,174,107);" />
<path d="M1268.606,2577.944 A1102.500,1102.500 40.000 0,1 1252.352,2574.326 L1236.628,2642.537 A1172.500,1172.500 0.000 0,0 1253.914,2646.385 Z" style="stroke-linecap:round;fill:rgb(253,174,107);" />
<path d="M1252.352,2574.326 A1102.500,1102.500 40.000 0,1 1236.154,2570.463 L1219.402,2638.429 A1172.500,1172.500 0.000 0,0 1236.628,2642.537 Z" style="stroke-linecap:round;fill:rgb(253,174,107);" />
<path d="M1236.154,2570.463 A1102.500,1102.500 40.000 0,1 1220.017,2566.356 L1202.240,2634.061 A1172.500,1172.500 0.000 0,0 1219.402,2638.429 Z" style="stroke-linecap:round;fill:rgb(253,174,107);" />
<path d="M1062.756,2512.089 A1102.500,1102.500 40.000 0,1 1047.520,2505.370 L1018.791,2569.203 A1172.500,1172.500 0.000 0,0 1034.994,2576.348 Z" style="stroke-linecap:round;fill:rgb(253,174,107);" />
<path d="M1047.520,2505.370 A1102.500,1102.500 40.000 0,1 1032.387,2498.421 L1002.697,2561.813 A1172.500,1172.500 0.000 0,0 1018.791,2569.203 Z" style="stroke-linecap:round;fill:rgb(253,174,107);" />
<path d="M1032.387,2498.421 A1102.500,1102.500 40.000 0,1 1017.361,2491.245 L986.717,2554.181 A1172.500,1172.500 0.000 0,0 1002.697,2561.813 Z" style="stroke-linecap:round;fill:rgb(253,174,107);" />
<path d="M1017.361,2491.245 A1102.500,1102.500 40.000 0,1 1002.445,2483.842 L970.854,2546.308 A1172.500,1172.500 0.000 0,0 986.717,2554.181 Z" style="stroke-linecap:round;fill:rgb(253,174,107);" />
<path d="M1002.445,2483.842 A1102.500,1102.500 40.000 0,1 987.643,2476.215 L955.112,2538.197 A1172.500,1172.500 0.000 0,0 970.854,2546.308 Z" style="stroke-linecap:round;fill:rgb(253,174,107);" />
<path d="M987.643,2476.215 A1102.500,1102.500 40.000 0,1 972.957,2468.366 L939.494,2529.849 A1172.500,1172.500 0.000 0,0 955.112,2538.197 Z" style="stroke-linecap:round;fill:rgb(253,174,107);" />
<path d="M972.957,2468.366 A1102.500,1102.500 40.000 0,1 958.392,2460.295 L924.004,2521.266 A1172.500,1172.500 0.000 0,0 939.494,2529.849 Z" style="stroke-linecap:round;fill:rgb(253,174,107);" />
<path d="M958.392,2460.295 A1102.500,1102.500 40.000 0,1 943.950,2452.006 L908.645,2512.450 A1172.500,1172.500 0.000 0,0 924.004,2521.266 Z" style="stroke-linecap:round;fill:rgb(253,174,107);" />
<path d="M943.950,2452.006 A1102.500,1102.500 40.000 0,1 929.635,2443.499 L893.421,2503.404 A1172.500,1172.500 0.000 0,0 908.645,2512.450 Z" style="stroke-linecap:round;fill:rgb(253,174,107);" />
<path d="M929.635,2443.499 A1102.500,1102.500 40.000 0,1 915.450,2434.777 L878.336,2494.128 A1172.500,1172.500 0.000 0,0 893.421,2503.404 Z" style="stroke-linecap:round;fill:rgb(253,174,107);" />
<path d="M915.450,2434.777 A1102.500,1102.500 40.000 0,1 901.399,2425.842 L863.392,2484.625 A1172.500,1172.500 0.000 0,0 878.336,2494.128 Z" style="stroke-linecap:round;fill:rgb(253,174,107);" />
<path d="M901.399,2425.842 A1102.500,1102.500 40.000 0,1 887.484,2416.695 L848.594,2474.898 A1172.500,1172.500 0.000 0,0 863.392,2484.625 Z" style="stroke-linecap:round;fill:rgb(253,174,107);" />
<path d="M887.484,2416.695 A1102.500,1102.500 40.000 0,1 873.709,2407.340 L833.944,2464.949 A1172.500,1172.500 0.000 0,0 848.594,2474.898 Z" style="stroke-linecap:round;fill:rgb(253,174,107);" />
<path d="M873.709,2407.340 A1102.500,1102.500 40.000 0,1 860.076,2397.777 L819.446,2454.779 A1172.500,1172.500 0.000 0,0 833.944,2464.949 Z" style="stroke-linecap:round;fill:rgb(253,174,107);" />
<path d="M860.076,2397.777 A1102.500,1102.500 40.000 0,1 846.590,2388.010 L805.104,2444.391 A1172.500,1172.500 0.000 0,0 819.446,2454.779 Z" style="stroke-linecap:round;fill:rgb(253,174,107);" />
<path d="M846.590,2388.010 A1102.500,1102.500 40.000 0,1 833.253,2378.040 L790.919,2433.789 A1172.500,1172.500 0.000 0,0 805.104,2444.391 Z" style="stroke-linecap:round;fill:rgb(253,174,107);" />
<path d="M833.253,2378.040 A1102.500,1102.500 40.000 0,1 820.067,2367.870 L776.897,2422.973 A1172.500,1172.500 0.000 0,0 790.919,2433.789 Z" style="stroke-linecap:round;fill:rgb(253,174,107);" />
<path d="M820.067,2367.870 A1102.500,1102.500 40.000 0,1 807.037,2357.502 L763.040,2411.946 A1172.500,1172.500 0.000 0,0 776.897,2422.973 Z" style="stroke-linecap:round;fill:rgb(253,174,107);" />
<path d="M807.037,2357.502 A1102.500,1102.500 40.000 0,1 794.165,2346.938 L749.350,2400.712 A1172.500,1172.500 0.000 0,0 763.040,2411.946 Z" style="stroke-linecap:round;fill:rgb(253,174,107);" />
<path d="M794.165,2346.938 A1102.500,1102.500 40.000 0,1 781.454,2336.181 L735.832,2389.272 A1172.500,1172.500 0.000 0,0 749.350,2400.712 Z" style="stroke-linecap:round;fill:rgb(253,174,107);" />
<path d="M781.454,2336.181 A1102.500,1102.500 40.000 0,1 768.907,2325.233 L722.489,2377.629 A1172.500,1172.500 0.000 0,0 735.832,2389.272 Z" style="stroke-linecap:round;fill:rgb(253,174,107);" />
<path d="M768.907,2325.233 A1102.500,1102.500 40.000 0,1 756.527,2314.097 L709.322,2365.786 A1172.500,1172.500 0.000 0,0 722.489,2377.629 Z" style="stroke-linecap:round;fill:rgb(253,174,107);" />
<path d="M756.527,2314.097 A1102.500,1102.500 40.000 0,1 744.316,2302.775 L696.336,2353.745 A1172.500,1172.500 0.000 0,0 709.322,2365.786 Z" style="stroke-linecap:round;fill:rgb(253,174,107);" />
<path d="M744.316,2302.775 A1102.500,1102.500 40.000 0,1 732.278,2291.271 L683.534,2341.510 A1172.500,1172.500 0.000 0,0 696.336,2353.745 Z" style="stroke-linecap:round;fill:rgb(253,174,107);" />
<path d="M732.278,2291.271 A1102.500,1102.500 40.000 0,1 720.415,2279.585 L670.917,2329.083 A1172.500,1172.500 0.000 0,0 683.534,2341.510 Z" style="stroke-linecap:round;fill:rgb(253,174,107);" />
<path d="M720.415,2279.585 A1102.500,1102.500 40.000 0,1 708.729,2267.722 L658.490,2316.466 A1172.500,1172.500 0.000 0,0 670.917,2329.083 Z" style="stroke-linecap:round;fill:rgb(253,174,107);" />
<path d="M708.729,2267.722 A1102.500,1102.500 40.000 0,1 697.225,2255.684 L646.255,2303.664 A1172.500,1172.500 0.000 0,0 658.490,2316.466 Z" style="stroke-linecap:round;fill:rgb(253,174,107);" />
<path d="M697.225,2255.684 A1102.500,1102.500 40.000 0,1 685.903,2243.473 L634.214,2290.678 A1172.500,1172.500 0.000 0,0 646.255,2303.664 Z" style="stroke-linecap:round;fill:rgb(253,174,107);" />
<path d="M685.903,2243.473 A1102.500,1102.500 40.000 0,1 674.767,2231.093 L622.371,2277.511 A1172.500,1172.500 0.000 0,0 634.214,2290.678 Z" style="stroke-linecap:round;fill:rgb(253,174,107);" />
<path d="M674.767,2231.093 A1102.500,1102.500 40.000 0,1 663.819,2218.546 L610.728,2264.168 A1172.500,1172.500 0.000 0,0 622.371,2277.511 Z" style="stroke-linecap:round;fill:rgb(253,174,107);" />
<path d="M663.819,2218.546 A1102.500,1102.500 40.000 0,1 653.062,2205.835 L599.288,2250.650 A1172.500,1172.500 0.000 0,0 610.728,2264.168 Z" style="stroke-linecap:round;fill:rgb(253,174,107);" />
<path d="M653.062,2205.835 A1102.500,1102.500 40.000 0,1 642.498,2192.963 L588.054,2236.960 A1172.500,1172.500 0.000 0,0 599.288,2250.650 Z" style="stroke-linecap:round;fill:rgb(253,174,107);" />
<path d="M642.498,2192.963 A1102.500,1102.500 40.000 0,1 632.130,2179.933 L577.027,2223.103 A1172.500,1172.500 0.000 0,0 588.054,2236.960 Z" style="stroke-linecap:round;fill:rgb(253,174,107);" />
<path d="M632.130,2179.933 A1102.500,1102.500 40.000 0,1 621.960,2166.747 L566.211,2209.081 A1172.500,1172.500 0.000 0,0 577.027,2223.103 Z" style="stroke-linecap:round;fill:rgb(253,174,107);" />
<path d="M621.960,2166.747 A1102.500,1102.500 40.000 0,1 611.990,2153.410 L555.609,2194.896 A1172.500,1172.500 0.000 0,0 566.211,2209.081 Z" style="stroke-linecap:round;fill:rgb(253,174,107);" />
<path d="M611.990,2153.410 A1102.500,1102.500 40.000 0,1 602.223,2139.924 L545.221,2180.554 A1172.500,1172.500 0.000 0,0 555.609,2194.896 Z" style="stroke-linecap:round;fill:rgb(253,174,107);" />
<path d="M602.223,2139.924 A1102.500,1102.500 40.000 0,1 592.660,2126.291 L535.051,2166.056 A1172.500,1172.500 0.000 0,0 545.221,2180.554 Z" style="stroke-linecap:round;fill:rgb(253,174,107);" />
<path d="M592.660,2126.291 A1102.500,1102.500 40.000 0,1 583.305,2112.516 L525.102,2151.406 A1172.500,1172.500 0.000 0,0 535.051,2166.056 Z" style="stroke-linecap:round;fill:rgb(253,174,107);" />
<path d="M583.305,2112.516 A1102.500,1102.500 40.000 0,1 574.158,2098.601 L515.375,2136.608 A1172.500,1172.500 0.000 0,0 525.102,2151.406 Z" style="stroke-linecap:round;fill:rgb(253,174,107);" />
<path d="M574.158,2098.601 A1102.500,1102.500 40.000 0,1 565.223,2084.550 L505.872,2121.664 A1172.500,1172.500 0.000 0,0 515.375,2136.608 Z" style="stroke-linecap:round;fill:rgb(253,174,107);" />
<path d="M565.223,2084.550 A1102.500,1102.500 40.000 0,1 556.501,2070.365 L496.596,2106.579 A1172.500,1172.500 0.000 0,0 505.872,2121.664 Z" style="stroke-linecap:round;fill:rgb(253,174,107);" />
<path d="M556.501,2070.365 A1102.500,1102.500 40.000 0,1 547.994,2056.050 L487.550,2091.355 A1172.500,1172.500 0.000 0,0 496.596,2106.579 Z" style="stroke-linecap:round;fill:rgb(253,174,107);" />
<path d="M547.994,2056.050 A1102.500,1102.500 40.000 0,1 539.705,2041.608 L478.734,2075.996 A1172.500,1172.500 0.000 0,0 487.550,2091.355 Z" style="stroke-linecap:round;fill:rgb(253,174,107);" />
<path d="M539.705,2041.608 A1102.500,1102.500 40.000 0,1 531.634,2027.043 L470.151,2060.506 A1172.500,1172.500 0.000 0,0 478.734,2075.996 Z" style="stroke-linecap:round;fill:rgb(253,174,107);" />
<path d="M531.634,2027.043 A1102.500,1102.500 40.000 0,1 523.785,2012.357 L461.803,2044.888 A1172.500,1172.500 0.000 0,0 470.151,2060.506 Z" style="stroke-linecap:round;fill:rgb(253,174,107);" />
<path d="M523.785,2012.357 A1102.500,1102.500 40.000 0,1 516.158,1997.555 L453.692,2029.146 A1172.500,1172.500 0.000 0,0 461.803,2044.888 Z" style="stroke-linecap:round;fill:rgb(253,174,107);" />
<path d="M516.158,1997.555 A1102.500,1102.500 40.000 0,1 508.755,1982.639 L445.819,2013.283 A1172.500,1172.500 0.000 0,0 453.692,2029.146 Z" style="stroke-linecap:round;fill:rgb(253,174,107);" />
<path d="M508.755,1982.639 A1102.500,1102.500 40.000 0,1 501.579,1967.613 L438.187,1997.303 A1172.500,1172.500 0.000 0,0 445.819,2013.283 Z" style="stroke-linecap:round;fill:rgb(253,174,107);" />
<path d="M501.579,1967.613 A1102.500,1102.500 40.000 0,1 494.630,1952.480 L430.797,1981.209 A1172.500,1172.500 0.000 0,0 438.187,1997.303 Z" style="stroke-linecap:round;fill:rgb(253,174,107);" />
<path d="M494.630,1952.480 A1102.500,1102.500 40.000 0,1 487.911,1937.244 L423.652,1965.006 A1172.500,1172.500 0.000 0,0 430.797,1981.209 Z" style="stroke-linecap:round;fill:rgb(253,174,107);" />
<path d="M487.911,1937.244 A1102.500,1102.500 40.000 0,1 481.423,1921.908 L416.751,1948.696 A1172.500,1172.500 0.000 0,0 423.652,1965.006 Z" style="stroke-linecap:round;fill:rgb(253,174,107);" />
<path d="M481.423,1921.908 A1102.500,1102.500 40.000 0,1 475.167,1906.477 L410.098,1932.285 A1172.500,1172.500 0.000 0,0 416.751,1948.696 Z" style="stroke-linecap:round;fill:rgb(253,174,107);" />
<path d="M475.167,1906.477 A1102.500,1102.500 40.000 0,1 469.145,1890.952 L403.693,1915.774 A1172.500,1172.500 0.000 0,0 410.098,1932.285 Z" style="stroke-linecap:round;fill:rgb(253,174,107);" />
<path d="M469.145,1890.952 A1102.500,1102.500 40.000 0,1 463.358,1875.338 L397.539,1899.169 A1172.500,1172.500 0.000 0,0 403.693,1915.774 Z" style="stroke-linecap:round;fill:rgb(253,174,107);" />
<path d="M463.358,1875.338 A1102.500,1102.500 40.000 0,1 457.807,1859.639 L391.636,1882.473 A1172.500,1172.500 0.000 0,0 397.539,1899.169 Z" style="stroke-linecap:round;fill:rgb(253,174,107);" />
<path d="M457.807,1859.639 A1102.500,1102.500 40.000 0,1 452.494,1843.857 L385.986,1865.689 A1172.500,1172.500 0.000 0,0 391.636,1882.473 Z" style="stroke-linecap:round;fill:rgb(253,174,107);" />
<path d="M452.494,1843.857 A1102.500,1102.500 40.000 0,1 447.420,1827.997 L380.590,1848.822 A1172.500,1172.500 0.000 0,0 385.986,1865.689 Z" style="stroke-linecap:round;fill:rgb(253,174,107);" />
<path d="M447.420,1827.997 A1102.500,1102.500 40.000 0,1 442.586,1812.062 L375.449,1831.876 A1172.500,1172.500 0.000 0,0 380.590,1848.822 Z" style="stroke-linecap:round;fill:rgb(253,174,107);" />
<path d="M442.586,1812.062 A1102.500,1102.500 40.000 0,1 437.994,1796.056 L370.565,1814.854 A1172.500,1172.500 0.000 0,0 375.449,1831.876 Z" style="stroke-linecap:round;fill:rgb(253,174,107);" />
<path d="M437.994,1796.056 A1102.500,1102.500 40.000 0,1 433.644,1779.983 L365.939,1797.760 A1172.500,1172.500 0.000 0,0 370.565,1814.854 Z" style="stroke-linecap:round;fill:rgb(253,174,107);" />
<path d="M433.644,1779.983 A1102.500,1102.500 40.000 0,1 429.537,1763.846 L361.571,1780.598 A1172.500,1172.500 0.000 0,0 365.939,1797.760 Z" style="stroke-linecap:round;fill:rgb(253,174,107);" />
<path d="M429.537,1763.846 A1102.500,1102.500 40.000 0,1 425.674,1747.648 L357.463,1763.372 A1172.500,1172.500 0.000 0,0 361.571,1780.598 Z" style="stroke-linecap:round;fill:rgb(253,174,107);" />
<path d="M425.674,1747.648 A1102.500,1102.500 40.000 0,1 422.056,1731.394 L353.615,1746.086 A1172.500,1172.500 0.000 0,0 357.463,1763.372 Z" style="stroke-linecap:round;fill:rgb(253,174,107);" />
<path d="M422.056,1731.394 A1102.500,1102.500 40.000 0,1 418.684,1715.087 L350.029,1728.743 A1172.500,1172.500 0.000 0,0 353.615,1746.086 Z" style="stroke-linecap:round;fill:rgb(253,174,107);" />
<path d="M418.684,1715.087 A1102.500,1102.500 40.000 0,1 415.559,1698.731 L346.706,1711.349 A1172.500,1172.500 0.000 0,0 350.029,1728.743 Z" style="stroke-linecap:round;fill:rgb(253,174,107);" />
<path d="M415.559,1698.731 A1102.500,1102.500 40.000 0,1 412.681,1682.330 L343.645,1693.906 A1172.500,1172.500 0.000 0,0 346.706,1711.349 Z" style="stroke-linecap:round;fill:rgb(253,174,107);" />
<path d="M412.681,1682.330 A1102.500,1102.500 40.000 0,1 410.052,1665.887 L340.848,1676.420 A1172.500,1172.500 0.000 0,0 343.645,1693.906 Z" style="stroke-linecap:round;fill:rgb(253,174,107);" />
<path d="M410.052,1665.887 A1102.500,1102.500 40.000 0,1 407.670,1649.406 L338.316,1658.893 A1172.500,1172.500 0.000 0,0 340.848,1676.420 Z" style="stroke-linecap:round;fill:rgb(253,174,107);" />
<path d="M407.670,1649.406 A1102.500,1102.500 40.000 0,1 405.538,1632.892 L336.049,1641.329 A1172.500,1172.500 0.000 0,0 338.316,1658.893 Z" style="stroke-linecap:round;fill:rgb(253,174,107);" />
<path d="M405.538,1632.892 A1102.500,1102.500 40.000 0,1 403.656,1616.347 L334.047,1623.734 A1172.500,1172.500 0.000 0,0 336.049,1641.329 Z" style="stroke-linecap:round;fill:rgb(253,174,107);" />
<path d="M403.656,1616.347 A1102.500,1102.500 40.000 0,1 402.024,1599.775 L332.311,1606.110 A1172.500,1172.500 0.000 0,0 334.047,1623.734 Z" style="stroke-linecap:round;fill:rgb(253,174,107);" />
<path d="M402.024,1599.775 A1102.500,1102.500 40.000 0,1 400.642,1583.181 L330.842,1588.462 A1172.500,1172.500 0.000 0,0 332.311,1606.110 Z" style="stroke-linecap:round;fill:rgb(253,174,107);" />
<path d="M400.642,1583.181 A1102.500,1102.500 40.000 0,1 399.511,1566.567 L329.639,1570.794 A1172.500,1172.500 0.000 0,0 330.842,1588.462 Z" style="stroke-linecap:round;fill:rgb(253,174,107);" />
<path d="M399.511,1566.567 A1102.500,1102.500 40.000 0,1 398.632,1549.939 L328.703,1553.109 A1172.500,1172.500 0.000 0,0 329.639,1570.794 Z" style="stroke-linecap:round;fill:rgb(253,174,107);" />
<path d="M398.632,1549.939 A1102.500,1102.500 40.000 0,1 398.003,1533.299 L328.035,1535.413 A1172.500,1172.500 0.000 0,0 328.703,1553.109 Z" style="stroke-linecap:round;fill:rgb(253,174,107);" />
<path d="M398.003,1533.299 A1102.500,1102.500 40.000 0,1 397.626,1516.651 L327.634,1517.709 A1172.500,1172.500 0.000 0,0 328.035,1535.413 Z" style="stroke-linecap:round;fill:rgb(253,174,107);" />
<path d="M397.626,1516.651 A1102.500,1102.500 40.000 0,1 397.500,1500.000 L327.500,1500.000 A1172.500,1172.500 0.000 0,0 327.634,1517.709 Z" style="stroke-linecap:round;fill:rgb(253,174,107);" />
<path d="M397.500,1500.000 A1102.500,1102.500 40.000 0,1 397.626,1483.349 L327.634,1482.291 A1172.500,1172.500 0.000 0,0 327.500,1500.000 Z" style="stroke-linecap:round;fill:rgb(253,174,107);" />
<path d="M397.626,1483.349 A1102.500,1102.500 40.000 0,1 398.003,1466.701 L328.035,1464.587 A1172.500,1172.500 0.000 0,0 327.634,1482.291 Z" style="stroke-linecap:round;fill:rgb(253,174,107);" />
<path d="M398.003,1466.701 A1102.500,1102.500 40.000 0,1 398.632,1450.061 L328.703,1446.891 A1172.500,1172.500 0.000 0,0 328.035,1464.587 Z" style="stroke-linecap:round;fill:rgb(253,174,107);" />
<path d="M398.632,1450.061 A1102.500,1102.500 40.000 0,1 399.511,1433.433 L329.639,1429.206 A1172.500,1172.500 0.000 0,0 328.703,1446.891 Z" style="stroke-linecap:round;fill:rgb(253,174,107);" />
<path d="M399.511,1433.433 A1102.500,1102.500 40.000 0,1 400.642,1416.819 L330.842,1411.538 A1172.500,1172.500 0.000 0,0 329.639,1429.206 Z" style="stroke-linecap:round;fill:rgb(253,174,107);" />
<path d="M400.642,1416.819 A1102.500,1102.500 40.000 0,1 402.024,1400.225 L332.311,1393.890 A1172.500,1172.500 0.000 0,0 330.842,1411.538 Z" style="stroke-linecap:round;fill:rgb(253,174,107);" />
<path d="M402.024,1400.225 A1102.500,1102.500 40.000 0,1 403.656,1383.653 L334.047,1376.266 A1172.500,1172.500 0.000 0,0 332.311,1393.890 Z" style="stroke-linecap:round;fill:rgb(253,174,107);" />
<path d="M403.656,1383.653 A1102.500,1102.500 40.000 0,1 405.538,1367.108 L336.049,1358.671 A1172.500,1172.500 0.000 0,0 334.047,1376.266 Z" style="stroke-linecap:round;fill:rgb(253,174,107);" />
<path d="M405.538,1367.108 A1102.500,1102.500 40.000 0,1 407.670,1350.594 L338.316,1341.107 A1172.500,1172.500 0.000 0,0 336.049,1358.671 Z" style="stroke-linecap:round;fill:rgb(253,174,107);" />
<path d="M407.670,1350.594 A1102.500,1102.500 40.000 0,1 410.052,1334.113 L340.848,1323.580 A1172.500,1172.500 0.000 0,0 338.316,1341.107 Z" style="stroke-linecap:round;fill:rgb(253,174,107);" />
<path d="M410.052,1334.113 A1102.500,1102.500 40.000 0,1 412.681,1317.670 L343.645,1306.094 A1172.500,1172.500 0.000 0,0 340.848,1323.580 Z" style="stroke-linecap:round;fill:rgb(253,174,107);" />
<path d="M412.681,1317.670 A1102.500,1102.500 40.000 0,1 415.559,1301.269 L346.706,1288.651 A1172.500,1172.500 0.000 0,0 343.645,1306.094 Z" style="stroke-linecap:round;fill:rgb(253,174,107);" />
<path d="M415.559,1301.269 A1102.500,1102.500 40.000 0,1 418.684,1284.913 L350.029,1271.257 A1172.500,1172.500 0.000 0,0 346.706,1288.651 Z" style="stroke-linecap:round;fill:rgb(253,174,107);" />
<path d="M418.684,1284.913 A1102.500,1102.500 40.000 0,1 422.056,1268.606 L353.615,1253.914 A1172.500,1172.500 0.000 0,0 350.029,1271.257 Z" style="stroke-linecap:round;fill:rgb(253,174,107);" />
<path d="M422.056,1268.606 A1102.500,1102.500 40.000 0,1 425.674,1252.352 L357.463,1236.628 A1172.500,1172.500 0.000 0,0 353.615,1253.914 Z" style="stroke-linecap:round;fill:rgb(253,174,107);" />
<path d="M425.674,1252.352 A1102.500,1102.500 40.000 0,1 429.537,1236.154 L361.571,1219.402 A1172.500,1172.500 0.000 0,0 357.463,1236.628 Z" style="stroke-linecap:round;fill:rgb(253,174,107);" />
<path d="M429.537,1236.154 A1102.500,1102.500 40.000 0,1 433.644,1220.017 L365.938,1202.240 A1172.500,1172.500 0.000 0,0 361.571,1219.402 Z" style="stroke-linecap:round;fill:rgb(253,174,107);" />
<path d="M433.644,1220.017 A1102.500,1102.500 40.000 0,1 437.994,1203.944 L370.565,1185.146 A1172.500,1172.500 0.000 0,0 365.938,1202.240 Z" style="stroke-linecap:round;fill:rgb(253,174,107);" />
<path d="M437.994,1203.944 A1102.500,1102.500 40.000 0,1 442.586,1187.938 L375.449,1168.124 A1172.500,1172.500 0.000 0,0 370.565,1185.146 Z" style="stroke-linecap:round;fill:rgb(253,174,107);" />
<path d="M442.586,1187.938 A1102.500,1102.500 40.000 0,1 447.420,1172.003 L380.590,1151.178 A1172.500,1172.500 0.000 0,0 375.449,1168.124 Z" style="stroke-linecap:round;fill:rgb(253,174,107);" />
<path d="M447.420,1172.003 A1102.500,1102.500 40.000 0,1 452.494,1156.143 L385.986,1134.311 A1172.500,1172.500 0.000 0,0 380.590,1151.178 Z" style="stroke-linecap:round;fill:rgb(253,174,107);" />
<path d="M452.494,1156.143 A1102.500,1102.500 40.000 0,1 457.807,1140.361 L391.636,1117.527 A1172.500,1172.500 0.000 0,0 385.986,1134.311 Z" style="stroke-linecap:round;fill:rgb(253,174,107);" />
<path d="M457.807,1140.361 A1102.500,1102.500 40.000 0,1 463.358,1124.662 L397.539,1100.831 A1172.500,1172.500 0.000 0,0 391.636,1117.527 Z" style="stroke-linecap:round;fill:rgb(253,174,107);" />
<path d="M463.358,1124.662 A1102.500,1102.500 40.000 0,1 469.145,1109.048 L403.693,1084.226 A1172.500,1172.500 0.000 0,0 397.539,1100.831 Z" style="stroke-linecap:round;fill:rgb(253,174,107);" />
<path d="M469.145,1109.048 A1102.500,1102.500 40.000 0,1 475.167,1093.523 L410.098,1067.715 A1172.500,1172.500 0.000 0,0 403.693,1084.226 Z" style="stroke-linecap:round;fill:rgb(253,174,107);" />
<path d="M475.167,1093.523 A1102.500,1102.500 40.000 0,1 481.423,1078.092 L416.751,1051.304 A1172.500,1172.500 0.000 0,0 410.098,1067.715 Z" style="stroke-linecap:round;fill:rgb(253,174,107);" />
<path d="M481.423,1078.092 A1102.500,1102.500 40.000 0,1 487.911,1062.756 L423.652,1034.994 A1172.500,1172.500 0.000 0,0 416.751,1051.304 Z" style="stroke-linecap:round;fill:rgb(253,174,107);" />
<path d="M487.911,1062.756 A1102.500,1102.500 40.000 0,1 494.630,1047.520 L430.797,1018.791 A1172.500,1172.500 0.000 0,0 423.652,1034.994 Z" style="stroke-linecap:round;fill:rgb(253,174,107);" />
<path d="M494.630,1047.520 A1102.500,1102.500 40.000 0,1 501.579,1032.387 L438.187,1002.697 A1172.500,1172.500 0.000 0,0 430.797,1018.791 Z" style="stroke-linecap:round;fill:rgb(253,174,107);" />
<path d="M501.579,1032.387 A1102.500,1102.500 40.000 0,1 508.755,1017.361 L445.819,986.717 A1172.500,1172.500 0.000 0,0 438.187,1002.697 Z" style="stroke-linecap:round;fill:rgb(253,174,107);" />
<path d="M508.755,1017.361 A1102.500,1102.500 40.000 0,1 516.158,1002.445 L453.692,970.854 A1172.500,1172.500 0.000 0,0 445.819,986.717 Z" style="stroke-linecap:round;fill:rgb(253,174,107);" />
<path d="M516.158,1002.445 A1102.500,1102.500 40.000 0,1 523.785,987.643 L461.803,955.112 A1172.500,1172.500 0.000 0,0 453.692,970.854 Z" style="stroke-linecap:round;fill:rgb(253,174,107);" />
<path d="M523.785,987.643 A1102.500,1102.500 40.000 0,1 531.634,972.957 L470.151,939.494 A1172.500,1172.500 0.000 0,0 461.803,955.112 Z" style="stroke-linecap:round;fill:rgb(253,174,107);" />
<path d="M531.634,972.957 A1102.500,1102.500 40.000 0,1 539.705,958.392 L478.734,924.004 A1172.500,1172.500 0.000 0,0 470.151,939.494 Z" style="stroke-linecap:round;fill:rgb(253,174,107);" />
<path d="M539.705,958.392 A1102.500,1102.500 40.000 0,1 547.994,943.950 L487.550,908.645 A1172.500,1172.500 0.000 0,0 478.734,924.004 Z" style="stroke-linecap:round;fill:rgb(253,174,107);" />
<path d="M547.994,943.950 A1102.500,1102.500 40.000 0,1 556.501,929.635 L496.596,893.421 A1172.500,1172.500 0.000 0,0 487.550,908.645 Z" style="stroke-linecap:round;fill:rgb(253,174,107);" />
<path d="M556.501,929.635 A1102.500,1102.500 40.000 0,1 565.223,915.450 L505.872,878.336 A1172.500,1172.500 0.000 0,0 496.596,893.421 Z" style="stroke-linecap:round;fill:rgb(253,174,107);" />
<path d="M565.223,915.450 A1102.500,1102.500 40.000 0,1 574.158,901.399 L515.375,863.392 A1172.500,1172.500 0.000 0,0 505.872,878.336 Z" style="stroke-linecap:round;fill:rgb(253,174,107);" />
<path d="M574.158,901.399 A1102.500,1102.500 40.000 0,1 583.305,887.484 L525.102,848.594 A1172.500,1172.500 0.000 0,0 515.375,863.392 Z" style="stroke-linecap:round;fill:rgb(253,174,107);" />
<path d="M583.305,887.484 A1102.500,1102.500 40.000 0,1 592.660,873.709 L535.051,833.944 A1172.500,1172.500 0.000 0,0 525.102,848.594 Z" style="stroke-linecap:round;fill:rgb(253,174,107);" />
<path d="M592.660,873.709 A1102.500,1102.500 40.000 0,1 602.223,860.076 L545.221,819.446 A1172.500,1172.500 0.000 0,0 535.051,833.944 Z" style="stroke-linecap:round;fill:rgb(253,174,107);" />
<path d="M602.223,860.076 A1102.500,1102.500 40.000 0,1 611.990,846.590 L555.609,805.104 A1172.500,1172.500 0.000 0,0 545.221,819.446 Z" style="stroke-linecap:round;fill:rgb(253,174,107);" />
<path d="M611.990,846.590 A1102.500,1102.500 40.000 0,1 621.960,833.253 L566.211,790.919 A1172.500,1172.500 0.000 0,0 555.609,805.104 Z" style="stroke-linecap:round;fill:rgb(253,174,107);" />
<path d="M621.960,833.253 A1102.500,1102.500 40.000 0,1 632.130,820.067 L577.027,776.897 A1172.500,1172.500 0.000 0,0 566.211,790.919 Z" style="stroke-linecap:round;fill:rgb(253,174,107);" />
<path d="M632.130,820.067 A1102.500,1102.500 40.000 0,1 642.498,807.037 L588.054,763.040 A1172.500,1172.500 0.000 0,0 577.027,776.897 Z" style="stroke-linecap:round;fill:rgb(253,174,107);" />
<path d="M642.498,807.037 A1102.500,1102.500 40.000 0,1 653.062,794.165 L599.288,749.350 A1172.500,1172.500 0.000 0,0 588.054,763.040 Z" style="stroke-linecap:round;fill:rgb(253,174,107);" />
<path d="M653.062,794.165 A1102.500,1102.500 40.000 0,1 663.819,781.454 L610.728,735.832 A1172.500,1172.500 0.000 0,0 599.288,749.350 Z" style="stroke-linecap:round;fill:rgb(253,174,107);" />
<path d="M663.819,781.454 A1102.500,1102.500 40.000 0,1 674.767,768.907 L622.371,722.489 A1172.500,1172.500 0.000 0,0 610.728,735.832 Z" style="stroke-linecap:round;fill:rgb(253,174,107);" />
<path d="M674.767,768.907 A1102.500,1102.500 40.000 0,1 685.903,756.527 L634.214,709.322 A1172.500,1172.500 0.000 0,0 622.371,722.489 Z" style="stroke-linecap:round;fill:rgb(253,174,107);" />
<path d="M685.903,756.527 A1102.500,1102.500 40.000 0,1 697.225,744.316 L646.255,696.336 A1172.500,1172.500 0.000 0,0 634.214,709.322 Z" style="stroke-linecap:round;fill:rgb(253,174,107);" />
<path d="M697.225,744.316 A1102.500,1102.500 40.000 0,1 708.729,732.278 L658.490,683.534 A1172.500,1172.500 0.000 0,0 646.255,696.336 Z" style="stroke-linecap:round;fill:rgb(253,174,107);" />
<path d="M708.729,732.278 A1102.500,1102.500 40.000 0,1 720.415,720.415 L670.917,670.917 A1172.500,1172.500 0.000 0,0 658.490,683.534 Z" style="stroke-linecap:round;fill:rgb(253,174,107);" />
<path d="M720.415,720.415 A1102.500,1102.500 40.000 0,1 732.278,708.729 L683.534,658.490 A1172.500,1172.500 0.000 0,0 670.917,670.917 Z" style="stroke-linecap:round;fill:rgb(253,174,107);" />
<path d="M732.278,708.729 A1102.500,1102.500 40.000 0,1 744.316,697.225 L696.336,646.255 A1172.500,1172.500 0.000 0,0 683.534,658.490 Z" style="stroke-linecap:round;fill:rgb(253,174,107);" />
<path d="M744.316,697.225 A1102.500,1102.500 40.000 0,1 756.527,685.903 L709.322,634.214 A1172.500,1172.500 0.000 0,0 696.336,646.255 Z" style="stroke-linecap:round;fill:rgb(253,174,107);" />
<path d="M756.527,685.903 A1102.500,1102.500 40.000 0,1 768.907,674.767 L722.489,622.371 A1172.500,1172.500 0.000 0,0 709.322,634.214 Z" style="stroke-linecap:round;fill:rgb(253,174,107);" />
<path d="M768.907,674.767 A1102.500,1102.500 40.000 0,1 781.454,663.819 L735.832,610.728 A1172.500,1172.500 0.000 0,0 722.489,622.371 Z" style="stroke-linecap:round;fill:rgb(253,174,107);" />
<path d="M781.454,663.819 A1102.500,1102.500 40.000 0,1 794.165,653.062 L749.350,599.288 A1172.500,1172.500 0.000 0,0 735.832,610.728 Z" style="stroke-linecap:round;fill:rgb(253,174,107);" />
<path d="M794.165,653.062 A1102.500,1102.500 40.000 0,1 807.037,642.498 L763.040,588.054 A1172.500,1172.500 0.000 0,0 749.350,599.288 Z" style="stroke-linecap:round;fill:rgb(253,174,107);" />
<path d="M807.037,642.498 A1102.500,1102.500 40.000 0,1 820.067,632.130 L776.897,577.027 A1172.500,1172.500 0.000 0,0 763.040,588.054 Z" style="stroke-linecap:round;fill:rgb(253,174,107);" />
<path d="M820.067,632.130 A1102.500,1102.500 40.000 0,1 833.253,621.960 L790.919,566.211 A1172.500,1172.500 0.000 0,0 776.897,577.027 Z" style="stroke-linecap:round;fill:rgb(253,174,107);" />
<path d="M833.253,621.960 A1102.500,1102.500 40.000 0,1 846.590,611.990 L805.104,555.609 A1172.500,1172.500 0.000 0,0 790.919,566.211 Z" style="stroke-linecap:round;fill:rgb(253,174,107);" />
<path d="M846.590,611.990 A1102.500,1102.500 40.000 0,1 860.076,602.223 L819.446,545.221 A1172.500,1172.500 0.000 0,0 805.104,555.609 Z" style="stroke-linecap:round;fill:rgb(253,174,107);" />
<path d="M860.076,602.223 A1102.500,1102.500 40.000 0,1 873.709,592.660 L833.944,535.051 A1172.500,1172.500 0.000 0,0 819.446,545.221 Z" style="stroke-linecap:round;fill:rgb(253,174,107);" />
<path d="M873.709,592.660 A1102.500,1102.500 40.000 0,1 887.484,583.305 L848.594,525.102 A1172.500,1172.500 0.000 0,0 833.944,535.051 Z" style="stroke-linecap:round;fill:rgb(253,174,107);" />
<path d="M887.484,583.305 A1102.500,1102.500 40.000 0,1 901.399,574.158 L863.392,515.375 A1172.500,1172.500 0.000 0,0 848.594,525.102 Z" style="stroke-linecap:round;fill:rgb(253,174,107);" />
<path d="M901.399,574.158 A1102.500,1102.500 40.000 0,1 915.450,565.223 L878.336,505.872 A1172.500,1172.500 0.000 0,0 863.392,515.375 Z" style="stroke-linecap:round;fill:rgb(253,174,107);" />
<path d="M915.450,565.223 A1102.500,1102.500 40.000 0,1 929.635,556.501 L893.421,496.596 A1172.500,1172.500 0.000 0,0 878.336,505.872 Z" style="stroke-linecap:round;fill:rgb(253,174,107);" />
<path d="M929.635,556.501 A1102.500,1102.500 40.000 0,1 943.950,547.994 L908.645,487.550 A1172.500,1172.500 0.000 0,0 893.421,496.596 Z" style="stroke-linecap:round;fill:rgb(253,174,107);" />
<path d="M943.950,547.994 A1102.500,1102.500 40.000 0,1 958.392,539.705 L924.004,478.734 A1172.500,1172.500 0.000 0,0 908.645,487.550 Z" style="stroke-linecap:round;fill:rgb(253,174,107);" />
<path d="M958.392,539.705 A1102.500,1102.500 40.000 0,1 972.957,531.634 L939.494,470.151 A1172.500,1172.500 0.000 0,0 924.004,478.734 Z" style="stroke-linecap:round;fill:rgb(253,174,107);" />
<path d="M972.957,531.634 A1102.500,1102.500 40.000 0,1 987.643,523.785 L955.112,461.803 A1172.500,1172.500 0.000 0,0 939.494,470.151 Z" style="stroke-linecap:round;fill:rgb(253,174,107);" />
<path d="M987.643,523.785 A1102.500,1102.500 40.000 0,1 1002.445,516.158 L970.854,453.692 A1172.500,1172.500 0.000 0,0 955.112,461.803 Z" style="stroke-linecap:round;fill:rgb(253,174,107);" />
<path d="M1002.445,516.158 A1102.500,1102.500 40.000 0,1 1017.361,508.755 L986.717,445.819 A1172.500,1172.500 0.000 0,0 970.854,453.692 Z" style="stroke-linecap:round;fill:rgb(253,174,107);" />
<path d="M1017.361,508.755 A1102.500,1102.500 40.000 0,1 1032.387,501.579 L1002.697,438.187 A1172.500,1172.500 0.000 0,0 986.717,445.819 Z" style="stroke-linecap:round;fill:rgb(253,174,107);" />
<path d="M1032.387,501.579 A1102.500,1102.500 40.000 0,1 1047.520,494.630 L1018.791,430.797 A1172.500,1172.500 0.000 0,0 1002.697,438.187 Z" style="stroke-linecap:round;fill:rgb(253,174,107);" />
<path d="M1047.520,494.630 A1102.500,1102.500 40.000 0,1 1062.756,487.911 L1034.994,423.652 A1172.500,1172.500 0.000 0,0 1018.791,430.797 Z" style="stroke-linecap:round;fill:rgb(253,174,107);" />
<path d="M1062.756,487.911 A1102.500,1102.500 40.000 0,1 1078.092,481.423 L1051.304,416.751 A1172.500,1172.500 0.000 0,0 1034.994,423.652 Z" style="stroke-linecap:round;fill:rgb(253,174,107);" />
<path d="M1078.092,481.423 A1102.500,1102.500 40.000 0,1 1093.523,475.167 L1067.715,410.098 A1172.500,1172.500 0.000 0,0 1051.304,416.751 Z" style="stroke-linecap:round;fill:rgb(253,174,107);" />
<path d="M1093.523,475.167 A1102.500,1102.500 40.000 0,1 1109.048,469.145 L1084.226,403.693 A1172.500,1172.500 0.000 0,0 1067.715,410.098 Z" style="stroke-linecap:round;fill:rgb(253,174,107);" />
<path d="M1109.048,469.145 A1102.500,1102.500 40.000 0,1 1124.662,463.358 L1100.831,397.539 A1172.500,1172.500 0.000 0,0 1084.226,403.693 Z" style="stroke-linecap:round;fill:rgb(253,174,107);" />
<path d="M1124.662,463.358 A1102.500,1102.500 40.000 0,1 1140.361,457.807 L1117.527,391.636 A1172.500,1172.500 0.000 0,0 1100.831,397.539 Z" style="stroke-linecap:round;fill:rgb(253,174,107);" />
<path d="M1140.361,457.807 A1102.500,1102.500 40.000 0,1 1156.143,452.494 L1134.311,385.986 A1172.500,1172.500 0.000 0,0 1117.527,391.636 Z" style="stroke-linecap:round;fill:rgb(253,174,107);" />
<path d="M1156.143,452.494 A1102.500,1102.500 40.000 0,1 1172.003,447.420 L1151.178,380.590 A1172.500,1172.500 0.000 0,0 1134.311,385.986 Z" style="stroke-linecap:round;fill:rgb(253,174,107);" />
<path d="M1172.003,447.420 A1102.500,1102.500 40.000 0,1 1187.938,442.586 L1168.124,375.449 A1172.500,1172.500 0.000 0,0 1151.178,380.590 Z" style="stroke-linecap:round;fill:rgb(253,174,107);" />
<path d="M1187.938,442.586 A1102.500,1102.500 40.000 0,1 1203.944,437.994 L1185.146,370.565 A1172.500,1172.500 0.000 0,0 1168.124,375.449 Z" style="stroke-linecap:round;fill:rgb(253,174,107);" />
<path d="M1203.944,437.994 A1102.500,1102.500 40.000 0,1 1220.017,433.644 L1202.240,365.939 A1172.500,1172.500 0.000 0,0 1185.146,370.565 Z" style="stroke-linecap:round;fill:rgb(253,174,107);" />
<path d="M1220.017,433.644 A1102.500,1102.500 40.000 0,1 1236.154,429.537 L1219.402,361.571 A1172.500,1172.500 0.000 0,0 1202.240,365.939 Z" style="stroke-linecap:round;fill:rgb(253,174,107);" />
<path d="M1236.154,429.537 A1102.500,1102.500 40.000 0,1 1252.352,425.674 L1236.628,357.463 A1172.500,1172.500 0.000 0,0 1219.402,361.571 Z" style="stroke-linecap:round;fill:rgb(253,174,107);" />
<path d="M1252.352,425.674 A1102.500,1102.500 40.000 0,1 1268.606,422.056 L1253.914,353.615 A1172.500,1172.500 0.000 0,0 1236.628,357.463 Z" style="stroke-linecap:round;fill:rgb(253,174,107);" />
<path d="M1268.606,422.056 A1102.500,1102.500 40.000 0,1 1284.913,418.684 L1271.257,350.029 A1172.500,1172.500 0.000 0,0 1253.914,353.615 Z" style="stroke-linecap:round;fill:rgb(253,174,107);" />
<path d="M1284.913,418.684 A1102.500,1102.500 40.000 0,1 1301.269,415.559 L1288.651,346.706 A1172.500,1172.500 0.000 0,0 1271.257,350.029 Z" style="stroke-linecap:round;fill:rgb(253,174,107);" />
<path d="M1301.269,415.559 A1102.500,1102.500 40.000 0,1 1317.670,412.681 L1306.094,343.645 A1172.500,1172.500 0.000 0,0 1288.651,346.706 Z" style="stroke-linecap:round;fill:rgb(253,174,107);" />
<path d="M1317.670,412.681 A1102.500,1102.500 40.000 0,1 1334.113,410.052 L1323.580,340.848 A1172.500,1172.500 0.000 0,0 1306.094,343.645 Z" style="stroke-linecap:round;fill:rgb(253,174,107);" />
</g>
<defs>
</defs>
</svg>
